<svg xmlns="http://www.w3.org/2000/svg" viewBox="0 0 23.38 38.25"><defs><style>.cls-1{isolation:isolate;}.cls-2,.cls-23{fill:#f9cbab;}.cls-3{fill:#cb8666;}.cls-4,.cls-46,.cls-48{fill:#fff;}.cls-5{fill:#b8b8b6;}.cls-21,.cls-6{fill:#dbd8d0;}.cls-11,.cls-12,.cls-13,.cls-16,.cls-19,.cls-23,.cls-31,.cls-32,.cls-33,.cls-40,.cls-44,.cls-47,.cls-50,.cls-6,.cls-9{mix-blend-mode:multiply;}.cls-11,.cls-22,.cls-7{fill:#8bb93f;}.cls-12,.cls-8{fill:#618038;}.cls-10{fill:none;}.cls-13,.cls-23{opacity:0.8;}.cls-14,.cls-16,.cls-20{fill:#486cad;}.cls-15{fill:#23467b;}.cls-16,.cls-47{opacity:0.5;}.cls-17{fill:#fee63a;}.cls-18{fill:#e7a323;}.cls-19{fill:#d8be28;}.cls-20,.cls-22,.cls-24,.cls-25,.cls-26,.cls-38,.cls-43,.cls-49{mix-blend-mode:screen;}.cls-24{fill:#fcd9d7;}.cls-24,.cls-40,.cls-43{opacity:0.4;}.cls-26{fill:#7ac2b3;}.cls-27{fill:#fcc498;}.cls-28{fill:#a63f2c;}.cls-29{fill:#231f20;}.cls-30{fill:#010101;}.cls-31{fill:#f4cbac;}.cls-32,.cls-45,.cls-50{fill:#e8b99b;}.cls-32,.cls-44{opacity:0.7;}.cls-33{fill:#f3ddcd;}.cls-34,.cls-49{fill:#d72b3e;}.cls-35{fill:#7b1229;}.cls-36{fill:#7c93a6;}.cls-37,.cls-38{fill:#332c26;}.cls-39{fill:#0c0c0c;}.cls-41{fill:#343332;}.cls-42{fill:#dededd;}.cls-43{fill:#fbd1cf;}.cls-46{opacity:0.3;}.cls-48{opacity:0.15;}</style></defs><title>human</title><g class="cls-1"><g id="Layer_1" data-name="Layer 1"><path class="cls-2" d="M15.15,32.73c-.38-1.9-1-5.13-1-5.13a9.38,9.38,0,0,1-2,.5,28.57,28.57,0,0,0,1,4.89A2.55,2.55,0,0,0,15.15,32.73Z"/><path class="cls-3" d="M13.89,33.12h0a3.2,3.2,0,0,1-.73-.09l0,0a28.7,28.7,0,0,1-1-4.9s0,0,0,0a9.11,9.11,0,0,0,2-.5h0s0,0,0,0,.59,3.26,1,5.13c0,0,0,0,0,0A2.36,2.36,0,0,1,13.89,33.12ZM13.2,33a2.9,2.9,0,0,0,.69.08h0a2.35,2.35,0,0,0,1.22-.33c-.36-1.75-.88-4.66-1-5.06a9.24,9.24,0,0,1-2,.48A29.76,29.76,0,0,0,13.2,33Z"/><path class="cls-4" d="M14.2,34.48l.44,0a1.78,1.78,0,0,1,.76-.63c-.06-.24-.15-.64-.25-1.15a2.55,2.55,0,0,1-2,.26,6.58,6.58,0,0,0,.49,1.12A.56.56,0,0,0,14.2,34.48Z"/><path class="cls-5" d="M14.64,34.55h0l-.44,0a.6.6,0,0,1-.57-.39,6.85,6.85,0,0,1-.5-1.13.06.06,0,0,1,0,0h0a2.93,2.93,0,0,0,.71.09,2.31,2.31,0,0,0,1.24-.34,0,0,0,0,1,0,0l0,0q.17.83.24,1.14s0,0,0,0h0c-.37.09-.73.62-.74.62S14.66,34.55,14.64,34.55ZM13.23,33a5.89,5.89,0,0,0,.47,1.05h0a.52.52,0,0,0,.5.34l.43,0a1.77,1.77,0,0,1,.72-.62c0-.22-.13-.57-.23-1.06a2.36,2.36,0,0,1-1.23.33A2.9,2.9,0,0,1,13.23,33Z"/><path class="cls-2" d="M8.29,33.21c0-.46.09-1,.14-1.48.1-1,.43-3.49.43-3.49A5.74,5.74,0,0,1,7,27.77a36.87,36.87,0,0,0-.63,5.42A2.11,2.11,0,0,0,8.29,33.21Z"/><path class="cls-3" d="M7.26,33.46h0a1.7,1.7,0,0,1-.92-.24s0,0,0,0A37.94,37.94,0,0,1,7,27.77l0,0H7a6,6,0,0,0,1.85.46h0a0,0,0,0,1,0,0s-.33,2.48-.43,3.5c0,.38-.09.88-.14,1.47,0,0,0,0,0,0A2.79,2.79,0,0,1,7.26,33.46Zm-.87-.3a1.63,1.63,0,0,0,.87.22h0a3,3,0,0,0,1-.2c.05-.58.09-1.07.13-1.45.1-.95.38-3.13.43-3.46A5.59,5.59,0,0,1,7,27.83,37.46,37.46,0,0,0,6.39,33.16Z"/><path class="cls-4" d="M8.29,33.21a2.11,2.11,0,0,1-1.93,0,7.79,7.79,0,0,0,0,.85.88.88,0,0,1,.24.37A1.18,1.18,0,0,1,8,34.52l.21-.34h0S8.24,33.75,8.29,33.21Z"/><path class="cls-5" d="M8,34.56H8a1,1,0,0,0-.7-.27,1.36,1.36,0,0,0-.62.16h0l0,0a.79.79,0,0,0-.24-.35v0a7.66,7.66,0,0,1,0-.85s0,0,0,0h0a1.61,1.61,0,0,0,.88.23,2.82,2.82,0,0,0,1-.21h0s0,0,0,0c0,.46-.07.83-.08.93h0s0,0,0,0a0,0,0,0,1,0,0h0L8,34.54l0,0Zm-.73-.36a1.05,1.05,0,0,1,.72.26l.19-.3h0s0-.4.08-.89a2.84,2.84,0,0,1-1,.19,1.84,1.84,0,0,1-.87-.21c0,.29,0,.54,0,.77a.91.91,0,0,1,.22.33A1.38,1.38,0,0,1,7.26,34.2Z"/><path class="cls-6" d="M8.29,33.21a2.76,2.76,0,0,1-.55.16.22.22,0,0,1,0,.08,1.93,1.93,0,0,1-.08.47.52.52,0,0,1-.52.3c-.42-.06-.44-.52-.46-.89a1.29,1.29,0,0,1-.31-.14,7.79,7.79,0,0,0,0,.85.88.88,0,0,1,.24.37A1.18,1.18,0,0,1,8,34.52l.21-.34h0S8.24,33.75,8.29,33.21Z"/><path class="cls-3" d="M7.69,28.91a.51.51,0,0,1-.24,0,.36.36,0,0,1-.2-.11s-.06,0,0,.06a.37.37,0,0,0,.19.16A.46.46,0,0,0,7.68,29S7.73,28.89,7.69,28.91Z"/><path class="cls-3" d="M13.87,28.76a.23.23,0,0,1-.14.08.29.29,0,0,1-.22-.07s-.07.05,0,.07a.28.28,0,0,0,.25.1.29.29,0,0,0,.19-.13S13.91,28.72,13.87,28.76Z"/><path class="cls-4" d="M14.86,36.63a10.64,10.64,0,0,0-1.49-.29.76.76,0,0,0,.05.27c.11.22.52,0,1.87.41a9,9,0,0,0,3.35.07,2.16,2.16,0,0,0,1-.41v-.24A8.23,8.23,0,0,1,14.86,36.63Z"/><path class="cls-5" d="M17.24,37.26a11,11,0,0,1-1.95-.2,7.52,7.52,0,0,0-1.43-.27c-.28,0-.41,0-.47-.17a.55.55,0,0,1-.06-.28,0,0,0,0,1,0,0h0a9.59,9.59,0,0,1,1.5.3,9.08,9.08,0,0,0,2.16.25,6.65,6.65,0,0,0,2.59-.45h0s0,0,0,0,0,.24,0,.25v0s-.19.22-1,.43A8.31,8.31,0,0,1,17.24,37.26Zm-3.83-.88a.59.59,0,0,0,.05.21c0,.08.13.1.4.12A8.18,8.18,0,0,1,15.3,37a10.92,10.92,0,0,0,1.94.2,7.12,7.12,0,0,0,1.39-.13,2.29,2.29,0,0,0,1-.39v-.17a7,7,0,0,1-2.57.44,8.8,8.8,0,0,1-2.18-.26A11.51,11.51,0,0,0,13.41,36.38Z"/><path class="cls-6" d="M17.63,36.87a8.71,8.71,0,0,1-2.77-.24,10.64,10.64,0,0,0-1.49-.29.76.76,0,0,0,.05.27c.11.22.52,0,1.87.41a10,10,0,0,0,2.36.19C17.64,37.09,17.63,37,17.63,36.87Z"/><path class="cls-4" d="M19.64,36.44c0-.56-.25-1.91-1.42-1.84H18a2.29,2.29,0,0,0-1.31,2.28A7,7,0,0,0,19.64,36.44Z"/><path class="cls-5" d="M17,36.93H16.7a0,0,0,0,1,0,0A2.36,2.36,0,0,1,18,34.56h.32c1.12,0,1.33,1.32,1.36,1.88,0,0,0,0,0,0A6.81,6.81,0,0,1,17,36.93Zm-.29-.08H17a6.67,6.67,0,0,0,2.56-.44c0-.57-.26-1.84-1.37-1.78H18A2.27,2.27,0,0,0,16.74,36.85Z"/><path class="cls-7" d="M18,34.6a4,4,0,0,1-2-.27c-.25-.26-.37-.54-.62-.45a1.78,1.78,0,0,0-.76.63l-.44,0a.56.56,0,0,1-.54-.37c-.4.16-.38.5-.31,1.13.05.45,0,.83,0,1.1a10.64,10.64,0,0,1,1.49.29,8.35,8.35,0,0,0,1.84.25A2.29,2.29,0,0,1,18,34.6Z"/><path class="cls-8" d="M16.7,36.92h0a8.62,8.62,0,0,1-1.85-.25,8.87,8.87,0,0,0-1.49-.29s0,0,0,0a2.15,2.15,0,0,1,0-.36,4.75,4.75,0,0,0,0-.74c-.07-.63-.09-1,.34-1.16h0a0,0,0,0,1,0,0,.52.52,0,0,0,.5.34l.43,0a1.68,1.68,0,0,1,.76-.63l.1,0c.15,0,.26.13.39.29l.16.19a3.87,3.87,0,0,0,1.88.26H18s0,0,0,0,0,0,0,0a2.28,2.28,0,0,0-1.28,2.25v0Zm-3.3-.61a9.14,9.14,0,0,1,1.47.29,8.71,8.71,0,0,0,1.79.24,2.39,2.39,0,0,1,1.15-2.2A3.59,3.59,0,0,1,16,34.36a2.61,2.61,0,0,1-.17-.2c-.14-.18-.25-.3-.41-.25-.37.09-.73.62-.74.62s0,0,0,0l-.44,0a.61.61,0,0,1-.56-.36c-.33.15-.31.48-.25,1.07a4.9,4.9,0,0,1,0,.75C13.4,36.1,13.4,36.21,13.4,36.31Z"/><g class="cls-9"><path class="cls-7" d="M18,34.6a4,4,0,0,1-2-.27c-.25-.26-.37-.54-.62-.45a1.78,1.78,0,0,0-.76.63l-.44,0a.56.56,0,0,1-.54-.37c-.4.16-.38.5-.31,1.13a.28.28,0,0,1,0,.09c0-.07,0-.52.23-.66s.62.1.87.12.2.37.3.61a1.24,1.24,0,0,1,.45-1.16c.35-.27.48,0,.21.22a.88.88,0,0,0-.29.93c.07.3.45,0,.62-.27s.13.22.17.42.37.07.52-.21.42-.12.32.22-.16,1.22-1.07,1-2.31-.1-2.32-.7h0c0,.19,0,.36,0,.5a10.64,10.64,0,0,1,1.49.29,8.35,8.35,0,0,0,1.84.25A2.29,2.29,0,0,1,18,34.6Z"/></g><path class="cls-4" d="M16.36,35.21a1.16,1.16,0,0,1,.61-.65c.19-.09-.1-.42-.55,0S16.11,35.7,16.36,35.21Z"/><path class="cls-5" d="M16.19,35.42h0c-.05,0-.09,0-.12-.1a.84.84,0,0,1,.33-.81.62.62,0,0,1,.43-.2c.14,0,.22.07.23.14a.13.13,0,0,1-.08.15,1.09,1.09,0,0,0-.58.62C16.31,35.38,16.24,35.42,16.19,35.42Zm.64-1a.62.62,0,0,0-.38.19.77.77,0,0,0-.31.72s0,.05.05.05h0s.08,0,.14-.15a1.14,1.14,0,0,1,.62-.67,0,0,0,0,0,0-.05A.16.16,0,0,0,16.83,34.38Z"/><path class="cls-6" d="M16.93,34.37a.91.91,0,0,1-.19.13,1,1,0,0,0-.43.39.7.7,0,0,1-.15.23l-.07.05c0,.22.13.32.27,0a1.16,1.16,0,0,1,.61-.65C17.06,34.52,17,34.41,16.93,34.37Z"/><path class="cls-4" d="M15.47,35.2a3.15,3.15,0,0,1,.73-.77c.22-.14-.1-.39-.47,0s-.49.61-.48.79S15.36,35.31,15.47,35.2Z"/><path class="cls-5" d="M15.32,35.33h0s-.1,0-.11-.15.16-.51.49-.82a.62.62,0,0,1,.39-.19.2.2,0,0,1,.21.12.16.16,0,0,1-.08.18,3,3,0,0,0-.71.75A.29.29,0,0,1,15.32,35.33Zm.77-1.08a.49.49,0,0,0-.33.16c-.32.3-.49.57-.47.76,0,0,0,.09,0,.09h0s0,0,.13-.09a3,3,0,0,1,.73-.77s.06-.06.05-.08A.14.14,0,0,0,16.09,34.25Z"/><path class="cls-6" d="M16.2,34.35c-.11.09-.25.12-.36.21a2.13,2.13,0,0,0-.29.31c-.07.09-.17.19-.28.17a.34.34,0,0,0,0,.14c0,.17.11.13.22,0a3.15,3.15,0,0,1,.73-.77.11.11,0,0,0,.06-.14Z"/><path class="cls-7" d="M6.76,35.22a1.68,1.68,0,0,1,1.83,1c0-.48-.06-1-.09-1.26s.1-.37.13-.49-.3-.25-.39-.3h0L8,34.52a1.18,1.18,0,0,0-1.37-.11A.88.88,0,0,0,6.38,34h0c-.34-.14-.46.24-.47.59A3,3,0,0,0,5,36.44,2,2,0,0,1,6.76,35.22Z"/><path class="cls-8" d="M5,36.48H5a.05.05,0,0,1,0,0,3.11,3.11,0,0,1,.93-1.82c0-.49.22-.73.52-.61h0a1,1,0,0,1,.23.34,1.38,1.38,0,0,1,.62-.15,1.05,1.05,0,0,1,.72.26l.19-.3,0,0h.06c.3.14.43.25.41.34a.43.43,0,0,1-.05.12.41.41,0,0,0-.08.35,8.54,8.54,0,0,1,.09,1.26h0s0,0,0,0,0,0,0,0a1.64,1.64,0,0,0-1.79-1A2,2,0,0,0,5,36.45S5,36.48,5,36.48Zm1.27-2.43c-.26,0-.29.45-.3.58l0,0a2.77,2.77,0,0,0-.85,1.51,2,2,0,0,1,1.68-1h.09A1.72,1.72,0,0,1,8.54,36,9.45,9.45,0,0,0,8.46,35a.47.47,0,0,1,.08-.4.9.9,0,0,0,.05-.09s-.1-.13-.36-.25h0L8,34.54l0,0H8a1,1,0,0,0-.7-.27,1.36,1.36,0,0,0-.62.16h0l0,0a1,1,0,0,0-.23-.35Z"/><path class="cls-10" d="M5.14,35.82a3.19,3.19,0,0,1,.33-.7C5.27,35.39,5.07,35.85,5.14,35.82Z"/><path class="cls-11" d="M8.18,35.41c-.21-.2-.14-.5,0-.35s.11,0,0-.32.35-.38.27-.2a.71.71,0,0,0,0,.47h0v0c-.06-.3.1-.37.13-.49s-.3-.25-.39-.3h0L8,34.52a1.18,1.18,0,0,0-1.37-.11A.88.88,0,0,0,6.38,34h0c-.34-.14-.46.24-.47.59l-.13.11a.52.52,0,0,1,.28,0c0-.32,0-.51.14-.52s.16.35,0,.57.08.2-.25.36a2.53,2.53,0,0,0-.76.64l0,0a5.15,5.15,0,0,0-.16.62,2,2,0,0,1,1.78-1.22,1.68,1.68,0,0,1,1.83,1c0-.3,0-.64-.05-.9a.35.35,0,0,0,0,.06C8.54,35.72,8.39,35.61,8.18,35.41Z"/><path class="cls-4" d="M8.58,36.66c0-.13,0-.28,0-.44a1.68,1.68,0,0,0-1.83-1A2,2,0,0,0,5,36.44c0,.12,0,.24-.05.35v.05A6,6,0,0,0,8.58,36.66Z"/><path class="cls-5" d="M6.38,37.08h0a5.05,5.05,0,0,1-1.46-.2s0,0,0,0a.11.11,0,0,0,0-.05c0-.11,0-.23,0-.36a2,2,0,0,1,1.82-1.25h.09a1.67,1.67,0,0,1,1.77,1v0c0,.17,0,.32,0,.44a0,0,0,0,1,0,0A6.74,6.74,0,0,1,6.38,37.08ZM5,36.81A4.89,4.89,0,0,0,6.38,37h0a7,7,0,0,0,2.16-.37c0-.11,0-.25,0-.41a1.62,1.62,0,0,0-1.7-1H6.76A2,2,0,0,0,5,36.45c0,.12,0,.24,0,.34Z"/><path class="cls-4" d="M4.93,36.84c0,.37.12.62,1.67.56s1.93-.22,2-.69a.11.11,0,0,0,0-.05A6,6,0,0,1,4.93,36.84Z"/><path class="cls-5" d="M6.16,37.45c-.64,0-1-.08-1.16-.24a.51.51,0,0,1-.11-.37l0,0h0a5,5,0,0,0,1.44.2,6.92,6.92,0,0,0,2.19-.38h0s0,0,0,0h0s0,0,0,0c0,.52-.44.66-2,.73ZM5,36.89a.36.36,0,0,0,.09.27c.17.17.65.24,1.54.2,1.61-.06,1.9-.22,1.93-.65a6.89,6.89,0,0,1-2.15.37A5,5,0,0,1,5,36.89Z"/><path class="cls-6" d="M7.07,37a1.62,1.62,0,0,1,0,.38c1.23-.08,1.49-.25,1.52-.67a.11.11,0,0,0,0-.05A7.61,7.61,0,0,1,7.07,37Z"/><path class="cls-4" d="M6.5,34.62a1.61,1.61,0,0,1,1.06,0c.37.12.42.34.1.22a2.47,2.47,0,0,0-1.11,0C6.28,34.84,6.32,34.69,6.5,34.62Z"/><path class="cls-5" d="M7.8,34.88l-.16,0a1.91,1.91,0,0,0-.59-.08,2.41,2.41,0,0,0-.5.05l-.12,0c-.09,0-.11,0-.11-.07s0-.13.17-.18a1.7,1.7,0,0,1,.6-.11,1.51,1.51,0,0,1,.48.07c.22.07.35.18.34.27S7.89,34.88,7.8,34.88Zm-.75-.2a1.85,1.85,0,0,1,.62.09c.14,0,.17,0,.17,0s-.09-.11-.29-.17a1.43,1.43,0,0,0-.46-.07,1.63,1.63,0,0,0-.57.1.25.25,0,0,0-.13.1h.15A1.88,1.88,0,0,1,7.05,34.68Z"/><path class="cls-6" d="M7.27,34.64a2.56,2.56,0,0,1-.62,0c-.07,0-.1,0-.11-.07l0,0c-.18.07-.22.22,0,.15a2.47,2.47,0,0,1,1.11,0c.15.06.22,0,.21,0A2.1,2.1,0,0,0,7.27,34.64Z"/><path class="cls-4" d="M6.3,35.21a2.06,2.06,0,0,1,1.37.06c.29.15.32-.28-.24-.35C6.46,34.8,6.05,35.12,6.3,35.21Z"/><path class="cls-5" d="M7.78,35.34h0l-.13,0a2.08,2.08,0,0,0-.78-.15,1.76,1.76,0,0,0-.56.09h0c-.1,0-.1-.1-.1-.13s.32-.26.83-.26l.42,0c.36,0,.48.22.47.33A.12.12,0,0,1,7.78,35.34Zm-.91-.26a2.05,2.05,0,0,1,.81.16l.1,0h0s0,0,0,0S7.74,35,7.43,35l-.41,0c-.51,0-.74.14-.75.2l0,0A1.77,1.77,0,0,1,6.87,35.08Z"/><path class="cls-6" d="M7.36,35.05c-.22,0-.45,0-.67,0s-.23,0-.24-.1c-.23.07-.28.19-.15.23a2.06,2.06,0,0,1,1.37.06c.16.08.24,0,.19-.12S7.54,35.06,7.36,35.05Z"/><path class="cls-12" d="M8.28,34.88A.81.81,0,0,0,8,34.53s0,0,0,0l.12.15a1.24,1.24,0,0,1,.1.2S8.28,34.9,8.28,34.88Z"/><path class="cls-12" d="M6.63,34.42a.39.39,0,0,0-.2.2s0,0,0,0,.11-.11.17-.15S6.65,34.41,6.63,34.42Z"/><g class="cls-13"><path class="cls-2" d="M7,27.77a36.87,36.87,0,0,0-.63,5.42,2.11,2.11,0,0,0,1.93,0c0-.46.09-1,.14-1.48.1-1,.43-3.49.43-3.49A5.74,5.74,0,0,1,7,27.77Zm.26.53c0-.11.25-.07.53.07s.14.48-.27.44S7.25,28.3,7.25,28.3Zm.58,3.25c-.14,1.52-1.08,1.88-1.15.73a12.36,12.36,0,0,1,.16-2.46.65.65,0,0,1,1-.53C8.14,29.44,8,30,7.83,31.55Z"/></g><g class="cls-13"><path class="cls-2" d="M14.18,27.6a9.38,9.38,0,0,1-2,.5,28.57,28.57,0,0,0,1,4.89,2.55,2.55,0,0,0,2-.26C14.77,30.83,14.18,27.6,14.18,27.6Zm-.43.65c.15,0,.37.12.21.29s-.33.26-.49.07a.22.22,0,0,1-.05-.14C13.41,28.33,13.58,28.23,13.75,28.25Zm.72,4.35c-.56.13-.93-.87-1.05-1.9-.19-1.55.59-1.92,1-.76C14.38,29.94,15,32.48,14.47,32.6Z"/></g><path class="cls-14" d="M11.29,27.49a.15.15,0,0,0-.18.17,3.22,3.22,0,0,0,0,.45,4.61,4.61,0,0,0,4.18-1.06c.13-.24,0-.42-.2-.29C13.89,27.76,11.29,27.49,11.29,27.49Z"/><path class="cls-15" d="M12.12,28.29a2.11,2.11,0,0,1-1-.16v0a1.91,1.91,0,0,1,0-.45.19.19,0,0,1,.2-.21h0s.32,0,.79,0a5.25,5.25,0,0,0,3-.75.18.18,0,0,1,.28,0,.34.34,0,0,1,0,.31h0A4.71,4.71,0,0,1,12.12,28.29Zm-.93-.2a2.67,2.67,0,0,0,.93.12A4.64,4.64,0,0,0,15.3,27a.25.25,0,0,0,0-.22.11.11,0,0,0-.17,0,5.14,5.14,0,0,1-3.06.77c-.47,0-.8,0-.8,0h0s-.12,0-.12.14A2.69,2.69,0,0,0,11.19,28.09Z"/><path class="cls-16" d="M11.82,27.52l-.53,0a.15.15,0,0,0-.18.17,3.22,3.22,0,0,0,0,.45,1.7,1.7,0,0,0,.71.13A5.79,5.79,0,0,1,11.82,27.52Z"/><path class="cls-16" d="M15.13,26.76a2.91,2.91,0,0,1-.67.38,1.16,1.16,0,0,1,.09.49,3.85,3.85,0,0,0,.78-.58C15.46,26.81,15.29,26.63,15.13,26.76Z"/><path class="cls-14" d="M6.34,27l-.18,0s-.09.4-.1.51a4.76,4.76,0,0,0,4.26.76,2,2,0,0,0,.11-.59h-.15A4.85,4.85,0,0,1,6.34,27Z"/><path class="cls-15" d="M9,28.47a5.17,5.17,0,0,1-3-1s0,0,0-.05a5,5,0,0,1,.11-.52s0,0,0,0l.18,0h0a4.89,4.89,0,0,0,2.68.83,4.12,4.12,0,0,0,1.21-.18h.19s0,0,0,0a1.67,1.67,0,0,1-.11.61,0,0,0,0,1,0,0A3.32,3.32,0,0,1,9,28.47Zm-2.93-1a5.22,5.22,0,0,0,2.93,1,3.25,3.25,0,0,0,1.26-.23,2.45,2.45,0,0,0,.11-.52h-.11a4.62,4.62,0,0,1-1.23.17A5.06,5.06,0,0,1,6.33,27L6.2,27C6.17,27.06,6.11,27.33,6.09,27.43Z"/><path class="cls-16" d="M6.74,27.19c-.25-.14-.4-.24-.4-.24l-.18,0s-.09.4-.1.51.22.21.59.4A1.94,1.94,0,0,1,6.74,27.19Z"/><path class="cls-16" d="M10.43,27.6h-.15a4.58,4.58,0,0,1-1,.17,2.47,2.47,0,0,1-.16.65,3.65,3.65,0,0,0,1.25-.24A2,2,0,0,0,10.43,27.6Z"/><path class="cls-14" d="M7.67,23.39a1.83,1.83,0,0,1-.28-.14s-.84.44-.41.84a4.77,4.77,0,0,0-.34.87C7.58,24.86,7.68,23.85,7.67,23.39Z"/><path class="cls-15" d="M6.64,25h0a0,0,0,0,1,0,0,4,4,0,0,1,.32-.85.33.33,0,0,1-.11-.3c0-.31.53-.57.55-.58h0l.28.14s0,0,0,0c0,.45-.09,1.51-1.07,1.61Zm.75-1.7c-.09.05-.46.27-.49.51a.26.26,0,0,0,.1.25s0,0,0,.05a3.92,3.92,0,0,0-.31.81c.84-.14.94-1.07.94-1.5Z"/><path class="cls-14" d="M14.66,24.36c-.09-.37-.16-.6-.16-.6s.31-.23.19-.51a4.19,4.19,0,0,0-.46-.66s-.24.13-.65.3A1.42,1.42,0,0,0,14.66,24.36Z"/><path class="cls-15" d="M14.66,24.4h0a1.46,1.46,0,0,1-1.12-1.51.05.05,0,0,1,0,0,6.71,6.71,0,0,0,.64-.29s0,0,0,0a2.94,2.94,0,0,1,.46.67c.12.26-.11.47-.18.54s.08.27.16.57c0,0,0,0,0,0Zm-1-1.48a1.39,1.39,0,0,0,1,1.39c-.09-.33-.15-.53-.15-.54s0,0,0,0,.29-.22.18-.46a3.07,3.07,0,0,0-.43-.63A5.51,5.51,0,0,1,13.62,22.92Z"/><path class="cls-14" d="M14.66,24.36a1.42,1.42,0,0,1-1.08-1.47c-1.21.51-3.87,1.4-5.91.5,0,.46-.09,1.47-1,1.57a10.37,10.37,0,0,0-.3,2,4.85,4.85,0,0,0,3.94.66s.32-1.1.45-1.79c.37,1.19.56,1.67.56,1.67s2.6.27,3.84-.73A17.55,17.55,0,0,0,14.66,24.36Z"/><path class="cls-15" d="M9.05,27.82A5,5,0,0,1,6.32,27s0,0,0,0a9.8,9.8,0,0,1,.31-2,0,0,0,0,1,0,0c.91-.1,1-1.1,1-1.52,0,0,0,0,0,0h0a4.92,4.92,0,0,0,2,.38h0a10.79,10.79,0,0,0,3.9-.89h0s0,0,0,0a1.39,1.39,0,0,0,1.05,1.43s0,0,0,0a18.54,18.54,0,0,1,.47,2.4.05.05,0,0,1,0,0,5.14,5.14,0,0,1-3.06.77h0c-.47,0-.8,0-.8,0s0,0,0,0A14.4,14.4,0,0,1,10.74,26c-.14.68-.42,1.63-.43,1.64l0,0A4.75,4.75,0,0,1,9.05,27.82Zm-2.67-.89a5,5,0,0,0,2.67.82,4.39,4.39,0,0,0,1.19-.17c0-.16.34-1.14.45-1.76a0,0,0,0,1,0,0,0,0,0,0,1,0,0c.32,1,.51,1.53.55,1.64s.38,0,.77,0a5.32,5.32,0,0,0,3-.74,18.46,18.46,0,0,0-.46-2.35A1.46,1.46,0,0,1,13.54,23a10.89,10.89,0,0,1-3.87.86h0a5,5,0,0,1-1.95-.36c0,.47-.13,1.43-1,1.55A10.57,10.57,0,0,0,6.38,26.93Z"/><path class="cls-16" d="M13.58,22.89c-1.21.51-3.87,1.4-5.91.5,0,.46-.09,1.47-1,1.57,0,.16-.08.33-.11.49v0c.11-.36.24-.18.65.15-.15-.51.13-.44.39-.85s.34-.73.86-.57a6.74,6.74,0,0,0,4.6-.52c.55-.31.44.26.78.62s-.13.68-.28.83.36-.1.57-.26.49-.39.7.16l0,.07c-.06-.27-.12-.5-.17-.7A1.42,1.42,0,0,1,13.58,22.89Z"/><path class="cls-17" d="M8.74,14.59s-.26-.08-.31.46a2.42,2.42,0,0,0-1.69,1.09l-1,1.41s-.45-.05,0,.59S7,19.92,7.41,19.54a27.08,27.08,0,0,0-.17,2.83c-.42.43-.51.65.15,1.05a5.79,5.79,0,0,0,3.75.43c1.7-.3,3.23-1.05,3.35-1.44s-.41-.68-.41-.68S13.46,18,13.17,17A8.89,8.89,0,0,0,15,16s.79.19.56-.84-1.07-2.54-1.46-1.78a11.45,11.45,0,0,0-2.65,1.24,1.45,1.45,0,0,0-1-.21C10,14.39,8.74,14.59,8.74,14.59Z"/><path class="cls-18" d="M9.83,24a5,5,0,0,1-2.46-.55c-.33-.2-.48-.35-.5-.52s.1-.34.32-.57c0-.57.13-2.32.17-2.73a.32.32,0,0,1-.14,0c-.42,0-1.08-.82-1.55-1.5q-.27-.37-.18-.54a.22.22,0,0,1,.2-.11h0c.07-.11.52-.73,1-1.4A2.45,2.45,0,0,1,8.4,15c0-.42.23-.46.31-.46h0c.11,0,1.24-.2,1.71-.23a1.53,1.53,0,0,1,1,.2,7.33,7.33,0,0,1,1.88-.93l.74-.29a.35.35,0,0,1,.29-.21c.47,0,1.06,1.21,1.24,2a.9.9,0,0,1-.07.74A.57.57,0,0,1,15,16a9.42,9.42,0,0,1-1.83,1.07c.29.93.85,4.36.9,4.65.09.05.53.33.42.71s-1.71,1.17-3.38,1.47A8.5,8.5,0,0,1,9.83,24ZM7.41,19.5h0s0,0,0,0-.22,2.22-.17,2.82a0,0,0,0,1,0,0c-.21.22-.33.37-.31.52s.16.28.46.47a5,5,0,0,0,2.42.54,7.15,7.15,0,0,0,1.3-.12c1.75-.31,3.22-1.07,3.32-1.41s-.39-.63-.4-.63a0,0,0,0,1,0,0s-.62-3.78-.91-4.69a0,0,0,0,1,0,0A9.6,9.6,0,0,0,15,15.92h0a.5.5,0,0,0,.46-.12.83.83,0,0,0,.05-.67c-.19-.86-.78-2-1.16-2-.09,0-.16.06-.22.19h0l-.76.31a6.94,6.94,0,0,0-1.89.93h0a1.46,1.46,0,0,0-1-.2c-.48,0-1.69.23-1.7.23h0c-.06,0-.2,0-.24.42,0,0,0,0,0,0a2.32,2.32,0,0,0-1.66,1.07c-.54.73-1,1.41-1,1.42H5.69a.16.16,0,0,0-.13.06c0,.05,0,.17.17.47.66.94,1.18,1.46,1.49,1.46a.25.25,0,0,0,.16-.06S7.39,19.5,7.41,19.5Z"/><g class="cls-9"><path class="cls-17" d="M15.59,15.11c-.23-1-1.07-2.54-1.46-1.78a11.45,11.45,0,0,0-2.65,1.24,1.45,1.45,0,0,0-1-.21c-.49,0-1.71.23-1.71.23s-.26-.08-.31.46a2.42,2.42,0,0,0-1.69,1.09l-1,1.41s-.45-.05,0,.59S7,19.92,7.41,19.54a27.08,27.08,0,0,0-.17,2.83c-.42.43-.51.65.15,1.05a5.79,5.79,0,0,0,3.75.43c1.7-.3,3.23-1.05,3.35-1.44s-.41-.68-.41-.68S13.46,18,13.17,17A8.89,8.89,0,0,0,15,16S15.82,16.14,15.59,15.11Zm-4.12,7.46c-2.62.63-3.43-.42-3.53-2a12.59,12.59,0,0,1,.26-4c-.34.44-.52.8-.57.49a5.74,5.74,0,0,1-.08-.65s-.2.15-.19.68c0,.8.29,2-.46,1.32s-1-.88-.47-.78a3.49,3.49,0,0,1,1-1.85c.55-.64,1-.39,1-.39s0,.26.41.58c-.18-.55-.21-.73.21-.39a1.51,1.51,0,0,0,1.9-.34c.49-.62.46-.1.2.39,0,0,.44-.1,1,.73C13,17.63,14.1,22,11.47,22.57Z"/></g><path class="cls-2" d="M9.06,14.6l0,.47a.92.92,0,0,0,.94.39,1,1,0,0,0,.73-.49l-.06-.6Z"/><path class="cls-3" d="M9.78,15.52h0A1,1,0,0,1,9,15.09s0,0,0,0l0-.47a0,0,0,0,1,0,0l1.6-.24h0a0,0,0,0,1,0,0l.06.6h0s-.14.37-.75.52A.75.75,0,0,1,9.78,15.52Zm-.7-.46a.9.9,0,0,0,.7.39h0l.19,0a1,1,0,0,0,.7-.46l-.05-.55-1.53.23Z"/><path class="cls-18" d="M7.78,17.66c.06-.26.12-.52.19-.77,0,0,0,0,0,0l-.21.67a2.47,2.47,0,0,1-.25-.88s0,0,0,0a2,2,0,0,0,.23,1,7.85,7.85,0,0,0-.24,1.58c0,.08.08,0,.09,0,.06-.5.13-1,.23-1.48,0,0,0-.07,0-.09Z"/><path class="cls-18" d="M13.2,17a2.11,2.11,0,0,0-.35-.76s0,0,0,0a4.69,4.69,0,0,1,.29.79S13.21,17,13.2,17Z"/><path class="cls-18" d="M7.13,19.17a2.66,2.66,0,0,0-.67-.82A1.23,1.23,0,0,0,5.75,18s0,0,0,0c.24,0,.48.3.65.45a2.87,2.87,0,0,1,.67.81S7.15,19.2,7.13,19.17Z"/><path class="cls-18" d="M15.23,15.29a2.76,2.76,0,0,1-.8-1.73s0,0,0,0a2.13,2.13,0,0,0,.78,1.79S15.24,15.32,15.23,15.29Z"/><path class="cls-18" d="M14.08,21.75s0,0,0,0a2,2,0,0,1,0,.64s.06,0,.06,0A1.44,1.44,0,0,0,14.08,21.75Z"/><path class="cls-18" d="M7.24,22.33s0,0,0,0a1.7,1.7,0,0,0,0,.55s.06,0,0-.05A4.18,4.18,0,0,1,7.24,22.33Z"/><path class="cls-10" d="M11.13,15.58c.26-.49.29-1-.2-.39a1.51,1.51,0,0,1-1.9.34c-.42-.34-.39-.16-.21.39-.41-.32-.41-.58-.41-.58s-.45-.25-1,.39a3.49,3.49,0,0,0-1,1.85c-.49-.1-.3.09.47.78s.49-.52.46-1.32c0-.53.19-.68.19-.68a5.74,5.74,0,0,0,.08.65c0,.31.23-.05.57-.49a12.59,12.59,0,0,0-.26,4c.1,1.61.91,2.66,3.53,2s1.54-4.94.65-6.26C11.57,15.48,11.13,15.58,11.13,15.58Z"/><path class="cls-19" d="M14.56,15.19c.16.65.08.41-.49.81s-.81.31-1.43.05a14.89,14.89,0,0,1,.81,6c.41.36.21.85-.21.65-1,.88-3.9,1.27-5.22.72-.6-.24-.24-.7.67-.44-1.4-.6-1.09-2.55-.78-5.87C7.5,18.93,7.39,19,7,18.67s-.62-.85-1.12-.85a.55.55,0,0,1-.37-.14.79.79,0,0,0,.19.46c.44.64,1.31,1.78,1.71,1.4a27.08,27.08,0,0,0-.17,2.83c-.42.43-.51.65.15,1.05a5.79,5.79,0,0,0,3.75.43c1.7-.3,3.23-1.05,3.35-1.44s-.41-.68-.41-.68S13.46,18,13.17,17A8.89,8.89,0,0,0,15,16a.47.47,0,0,0,.6-.43C15.29,15.75,14.84,15.42,14.56,15.19Z"/><path class="cls-17" d="M12.2,14.64a3.85,3.85,0,0,1,1.67-.85c0-.13.24-.3.34-.33s0,1,.51,1.56c.24.26-.16.19-.42-.2.17.54-.15.67-.75.86S11.59,15.12,12.2,14.64Z"/><path class="cls-2" d="M5.9,18l-.62.77a11.48,11.48,0,0,0-1.11-1.72c.49-.54.41-1.18-.11-1.93S2.79,14,2.54,14.64a.49.49,0,0,0-.64.4c-.34,0-.42.47-.42.47-.42.1-.31.76.06,1.1s.59.12.59.12,0,1,.84,1c.68,1.22,1.79,2.95,2.4,2.89s1.39-.93,1.68-1.47A4.11,4.11,0,0,0,5.9,18Z"/><path class="cls-3" d="M5.34,20.64c-.69,0-1.9-2-2.39-2.9a.81.81,0,0,1-.6-.23,1.2,1.2,0,0,1-.26-.71.33.33,0,0,1-.15,0,.65.65,0,0,1-.42-.2,1,1,0,0,1-.33-.89.35.35,0,0,1,.25-.27c0-.11.12-.48.43-.48a.5.5,0,0,1,.52-.41h.13A.46.46,0,0,1,3,14.28a1.73,1.73,0,0,1,1.13.83c.55.79.59,1.43.13,1.95a12.28,12.28,0,0,1,1.07,1.66L5.87,18h.06l.11.08a3.59,3.59,0,0,1,1,1v0c-.31.57-1.1,1.43-1.72,1.49ZM3,17.67s0,0,0,0c.38.67,1.67,2.87,2.34,2.87h0c.55,0,1.32-.86,1.64-1.43a3.39,3.39,0,0,0-1-1l-.1-.07-.59.74h0s0,0,0,0a12.73,12.73,0,0,0-1.11-1.72,0,0,0,0,1,0-.05c.46-.5.42-1.12-.11-1.88A1.63,1.63,0,0,0,3,14.36a.4.4,0,0,0-.38.3l0,0H2.39a.43.43,0,0,0-.45.37s0,0,0,0c-.3,0-.38.44-.38.44l0,0a.3.3,0,0,0-.22.23.93.93,0,0,0,.3.81.58.58,0,0,0,.37.18.24.24,0,0,0,.16-.06h0s0,0,0,0a1.1,1.1,0,0,0,.24.73.72.72,0,0,0,.54.21Z"/><path class="cls-3" d="M3.55,16.5a.47.47,0,0,1-.15-.62.06.06,0,0,0,0-.06,2.29,2.29,0,0,0-.23-.16c-.26-.19-.48-.44-.35-.78,0,0,0,0,0,0-.18.38,0,.59.32.87.08.09.22.11.15.24s0,0,0,0c-.59,0-.74-1-.72-1.4,0,0,0,0,0,0a1.65,1.65,0,0,0,.16,1.09c.1.21.32.46.56.39,0,0,0,.06,0,.08a.48.48,0,0,0,.27.41S3.59,16.52,3.55,16.5Z"/><path class="cls-3" d="M4.3,15.56a.54.54,0,0,0-.45-.37c-.35-.07-.59-.34-1-.37a0,0,0,0,0,0,0,3.3,3.3,0,0,1,.75.38,2,2,0,0,0,.33.09c.13,0,.2.2.26.32S4.31,15.59,4.3,15.56Z"/><path class="cls-3" d="M3.11,16.13c-.27.27-.64,0-.84-.23a1.51,1.51,0,0,1-.38-.84h0a1.42,1.42,0,0,0,.45,1c.23.21.55.37.8.1C3.16,16.17,3.16,16.09,3.11,16.13Z"/><path class="cls-3" d="M2.48,16.3c-.07.13-.13.3-.32.25a.79.79,0,0,1-.38-.27,1.62,1.62,0,0,1-.32-.78h0a1.72,1.72,0,0,0,.51,1c.28.25.46,0,.57-.26C2.55,16.25,2.5,16.26,2.48,16.3Z"/><path class="cls-3" d="M5.49,19.19a1.19,1.19,0,0,0-.08-.2c0-.08-.08-.16-.13-.24s0,0,0,0a2.53,2.53,0,0,1,.19.45S5.49,19.21,5.49,19.19Z"/><path class="cls-16" d="M11.52,26.92c-.14-.52-.63-1-.14-1.27.71-.32,1.59-1.23.83-.76-1.53,1.09-3.61-.29-3.05.23s.8.41.78.67c-.1.54-.14,1.45-.85,1.54a6.37,6.37,0,0,1-2.6-.59L6.43,26c-.07.55-.09,1-.09,1a4.85,4.85,0,0,0,3.94.66s.32-1.1.45-1.79c.37,1.19.56,1.67.56,1.67s2.6.27,3.84-.73c0-.09,0-.19,0-.28C13.54,27.41,11.65,27.41,11.52,26.92Z"/><path class="cls-20" d="M12.63,24.59C11.56,25,10,25.5,9,24.75c0,0,0,0,0,0,1,.84,2.66.43,3.65-.11C12.64,24.67,12.68,24.57,12.63,24.59Z"/><path class="cls-20" d="M6.82,25.88c-.05-.14-.32-.36-.05-.46,0,0,0,0,0,0a.27.27,0,0,0-.2.14c-.07.13,0,.25.1.36-.24.13-.2.7-.17.89s.08,0,.08-.06,0-.72.15-.72C6.79,26,6.84,25.92,6.82,25.88Z"/><path class="cls-20" d="M14.5,24.75s0,0,0,0a5.42,5.42,0,0,1,.36,1.53c0,.07.08,0,.08,0A3.52,3.52,0,0,0,14.5,24.75Z"/><g class="cls-9"><path class="cls-21" d="M15.15,32.73l-.1.06c.07.41.12,1.07-.26,1.2s-.71-.55-.83-.91a2.81,2.81,0,0,1-.79-.09,6.58,6.58,0,0,0,.49,1.12.56.56,0,0,0,.54.37l.44,0a1.78,1.78,0,0,1,.76-.63C15.34,33.64,15.25,33.24,15.15,32.73Z"/></g><g class="cls-9"><path class="cls-21" d="M8.59,36.22a1.68,1.68,0,0,0-1.83-1,1.89,1.89,0,0,0-.94.26h0s1.74-.51,2,.41c.16.71-1.09,1.24-2.85.73a.78.78,0,0,1,0,.16v.05a6,6,0,0,0,3.65-.18C8.59,36.53,8.59,36.38,8.59,36.22Z"/></g><path class="cls-6" d="M17.81,35.1A.86.86,0,0,1,19,34.84a1.13,1.13,0,0,0-.8-.24H18a2.29,2.29,0,0,0-1.31,2.28,7,7,0,0,0,2.94-.44c0-.12,0-.28-.06-.45C18,36.94,17.29,35.79,17.81,35.1Z"/><path class="cls-22" d="M13.58,35.45s-.05-.64.22-.62a.91.91,0,0,1,.8.64c.09.41.19.23.23-.13s.13-.38.16,0,.25.38.55.25.21.2.17.49-1.09.25-1.63,0S13.59,35.79,13.58,35.45Z"/><path class="cls-23" d="M6.75,18.73a5.62,5.62,0,0,1-.6.76c-.45.48-.62-.15-.59-.56a1.66,1.66,0,0,1,.48-.8C6,18.07,5.89,18,5.9,18l-.62.77s-.42-.77-.78-1.3c0,0,0,0,0,0a8.06,8.06,0,0,1,.94,2.14c.17.78-.4.78-1.26-.49s-.73-1.77-.86-1.69a.59.59,0,0,1-.85-.4c-.22-.58.62-.86.79-.63.22.41.59.33.47.17a.48.48,0,0,1-.24-.69c.07-.17.22-.25-.17-.41-.58-.34-.46-.7-.14-.51a2.7,2.7,0,0,0,.81.32.61.61,0,0,1,.26.15,2.9,2.9,0,0,0-.2-.33c-.53-.75-1.27-1.14-1.52-.5H2.32a.91.91,0,0,0,0,.17,2,2,0,0,0,.23.82c.07.14.27.36.14.52s-.49-.29-.55-.4A2.14,2.14,0,0,1,1.91,15a.08.08,0,0,1,0,0,.28.28,0,0,0-.2.05,1.63,1.63,0,0,0,.25.7c.1.16.42.47.24.67s-.41-.15-.48-.28a2.11,2.11,0,0,1-.23-.68h0a.33.33,0,0,0-.12.05.79.79,0,0,1,.1.28,3.15,3.15,0,0,0,.3.5.36.36,0,0,1,0,.4.35.35,0,0,0,.4,0s0,1,.84,1c.68,1.22,1.79,2.95,2.4,2.89s1.39-.93,1.68-1.47A1.68,1.68,0,0,0,6.75,18.73Z"/><path class="cls-24" d="M2.52,16c-.1-.17-.24-.32-.35-.48A1.18,1.18,0,0,1,2,14.91H2a1.19,1.19,0,0,0,.09.62,1.64,1.64,0,0,0,.41.53S2.54,16,2.52,16Z"/><path class="cls-24" d="M2,16.44A3,3,0,0,0,1.72,16a1.21,1.21,0,0,1-.19-.58s0,0,0,0a1.07,1.07,0,0,0,.48,1S2.06,16.47,2,16.44Z"/><path class="cls-24" d="M1.77,16.58c-.09-.12-.2-.2-.29-.32a.89.89,0,0,1-.18-.49s0,0,0,0a.94.94,0,0,0,.44.89S1.8,16.61,1.77,16.58Z"/><path class="cls-24" d="M3.79,16.38a.79.79,0,0,1-.16-.3.64.64,0,0,1,.06-.36h0s.09-.07.05-.09l-.39-.24C3.2,15.3,3,15.16,3,15c0,0,0,0,0,0s0,.29.12.4a2.1,2.1,0,0,0,.3.22.76.76,0,0,0,.23.13h0a.65.65,0,0,0,.06.81S3.81,16.43,3.79,16.38Z"/><path class="cls-24" d="M3,16.35a.61.61,0,0,0-.49.31.6.6,0,0,0,.08.65c0,.06.13-.08.11-.13a.85.85,0,0,1-.12-.38c0-.19.24-.37.4-.39S3.07,16.36,3,16.35Z"/><path class="cls-24" d="M5.17,19A5.25,5.25,0,0,0,4,17s0,0,0,0a10.21,10.21,0,0,1,1.14,2S5.18,19,5.17,19Z"/><path class="cls-24" d="M6,18.14a1.84,1.84,0,0,0-.35.49,2.36,2.36,0,0,0-.11.59c0,.07.09,0,.09,0a1.85,1.85,0,0,1,.08-.47,2.19,2.19,0,0,1,.3-.54S6,18.13,6,18.14Z"/><path class="cls-2" d="M14.42,13.75a2.45,2.45,0,0,0,1-.93c.6-.81,2.4-3.14,3-3.8-.38-.15-.35-.38-.25-.82A1.57,1.57,0,0,0,17.89,7c-.19-.21-.11-.5.25-.4a.78.78,0,0,1,.59.81c0,.18.13.16.18-.34s.16-2,.45-1.94.39.51.26,1.37-.13,1,.14.41.69-1.55,1-1.49.19.5-.15,1.26-.47,1-.3.81,1.14-1.18,1.41-1-.17.71-.56,1.06-.59.51-.29.35,1-.54,1.18-.31-.22.44-.65.62-.77.2-.91.52a1.16,1.16,0,0,1-1.1.78,14.51,14.51,0,0,1-1.53,2.82,9.36,9.36,0,0,1-2.77,2.88A2.81,2.81,0,0,1,14.42,13.75Z"/><path class="cls-3" d="M15.12,15.25h0a2.72,2.72,0,0,1-.72-1.48s0,0,0,0a2.76,2.76,0,0,0,1-.93C16,12,17.77,9.73,18.38,9c-.37-.17-.3-.46-.22-.84a1.52,1.52,0,0,0-.3-1.15.33.33,0,0,1-.09-.35c.05-.11.2-.16.38-.1a.79.79,0,0,1,.61.84s0,0,0,.06a1,1,0,0,0,.1-.41h0c.12-1.41.27-2,.5-2a.31.31,0,0,1,.19.12,2,2,0,0,1,.09,1.29c0,.21-.08.58-.07.7a2.44,2.44,0,0,0,.15-.3v0c.29-.65.69-1.55,1.06-1.49a.25.25,0,0,1,.19.13c.11.2-.06.62-.32,1.18l0,.06c-.13.29-.24.52-.3.67.22-.25,1-1,1.33-1l.09,0a.2.2,0,0,1,.1.15c0,.28-.4.74-.65,1l-.34.29h0L21,7.82a2.37,2.37,0,0,1,.88-.33.32.32,0,0,1,.23.08.2.2,0,0,1,.07.2c0,.18-.36.34-.72.49l-.33.12c-.28.1-.47.16-.57.38a1.15,1.15,0,0,1-1.11.79l0,.09a14.25,14.25,0,0,1-1.49,2.73,9,9,0,0,1-2.78,2.88Zm-.65-1.47a2.63,2.63,0,0,0,.66,1.39,9.12,9.12,0,0,0,2.73-2.85,14.93,14.93,0,0,0,1.48-2.71l0-.11a.05.05,0,0,1,0,0,1.11,1.11,0,0,0,1.06-.75c.11-.25.33-.33.61-.42l.33-.12c.24-.1.64-.28.68-.44a.16.16,0,0,0-.05-.12.24.24,0,0,0-.18-.06,2.24,2.24,0,0,0-.84.32L20.92,8,20.76,8a.09.09,0,0,1-.05,0s0-.06.46-.45c.32-.29.64-.69.62-.9a.15.15,0,0,0-.06-.1h-.05c-.32,0-1.15.82-1.3,1s-.08.09-.11.09l0,0s0-.11.34-.87l0-.06c.23-.51.41-.94.32-1.12a.17.17,0,0,0-.13-.08h0c-.31,0-.69.87-1,1.44V7c-.16.36-.2.38-.24.38h0s0-.18.06-.81a1.86,1.86,0,0,0-.09-1.24.17.17,0,0,0-.13-.08h0c-.12,0-.28.32-.41,1.88v0c0,.3-.09.48-.18.48a.05.05,0,0,1,0,0,.15.15,0,0,1,0-.13.75.75,0,0,0-.56-.76c-.15,0-.25,0-.29.06a.27.27,0,0,0,.08.27,1.59,1.59,0,0,1,.31,1.21c-.09.44-.12.64.23.78,0,0,0,0,0,0s0,0,0,0c-.58.64-2.38,3-3,3.79A2.85,2.85,0,0,1,14.47,13.78Z"/><path class="cls-3" d="M19.43,7.75a.65.65,0,0,0-.63-.14s0,0,0,0a.67.67,0,0,1,.6.22,1,1,0,0,1,.19.64s.07,0,.07-.05A1,1,0,0,0,19.43,7.75Z"/><path class="cls-3" d="M18.9,7.4s0,0,0,0a1.15,1.15,0,0,1,1.45.75s.07,0,.07-.07A1.09,1.09,0,0,0,18.9,7.4Z"/><path class="cls-23" d="M20.9,7.91c-.28.15-.14,0,.21-.28-.61.29-.41-.18.23-.81a1.37,1.37,0,0,1,.4-.32c-.27-.15-1.22.8-1.4,1s0-.06.3-.81l0-.06-.28.41c-.45.67-.29-.26.08-1.06a1.11,1.11,0,0,1,.4-.53l-.08,0c-.34-.06-.75.87-1,1.49s-.26.43-.16-.32c-.09.28-.2.47-.27.48s-.12-.6-.06-1.43a1.79,1.79,0,0,1,.1-.51h0c-.29,0-.41,1.44-.45,1.94,0,.32-.1.44-.15.44v.13s.67-.21.79.91c0,.22.49-.74-.29-1-.39-.17.77-.34,1,.66.09.74-.64,1.42-1,.76-.51.12-.95-.18-.82-.64A1.68,1.68,0,0,0,18,6.88c-.11-.11-.12-.2-.09-.26-.19,0-.21.24-.06.41A1.57,1.57,0,0,1,18.2,8.2c-.1.44-.13.67.25.82-.4.45-1.39,1.71-2.16,2.71h0c.05,0,1.89-2.34,2.35-2.27s.1,1.11-1.26,3c-1.24,1.71-3.19,2.33-1.85.35a1.5,1.5,0,0,0,.11-.22c-.07.1-.14.18-.19.26a2.45,2.45,0,0,1-1,.93,2.81,2.81,0,0,0,.7,1.47,9.36,9.36,0,0,0,2.77-2.88,14.51,14.51,0,0,0,1.53-2.82,1.16,1.16,0,0,0,1.1-.78.57.57,0,0,1,.29-.28c-.21-.13.41-.63,1-.81a.72.72,0,0,1,.32-.05C21.85,7.37,21.2,7.76,20.9,7.91Z"/><path class="cls-24" d="M18.41,9.49a9.8,9.8,0,0,0-2.48,3c-.06.09,0,.14.08.05.38-.53.67-1.1,1.08-1.61a9.27,9.27,0,0,1,1.33-1.4S18.45,9.47,18.41,9.49Z"/><path class="cls-24" d="M18.16,6.69s-.05,0,0,.06a1.84,1.84,0,0,1,.6,1s0,0,0,0A1.13,1.13,0,0,0,18.16,6.69Z"/><path class="cls-24" d="M19.42,5.21s-.05,0,0,0c.32.54.09,1.21,0,1.78,0,.07.07,0,.08,0C19.64,6.53,19.83,5.61,19.42,5.21Z"/><path class="cls-24" d="M20.88,5.49s-.05,0,0,0c.17.55-.35,1.09-.55,1.55,0,.09.05.07.09,0C20.58,6.7,21.18,6,20.88,5.49Z"/><path class="cls-24" d="M21.73,6.59s0,0,0,0c0,.34-.4.64-.63.86,0,0,0,.14,0,.08a3,3,0,0,0,.46-.49A.73.73,0,0,0,21.73,6.59Z"/><path class="cls-24" d="M22.07,7.63s-.05,0-.05,0c0,.18-.4.28-.52.32a2.79,2.79,0,0,0-.53.24s-.1.16,0,.13A4.29,4.29,0,0,0,21.8,8C21.92,7.9,22.11,7.8,22.07,7.63Z"/><path class="cls-24" d="M19.61,7.44s-.05,0,0,0a1,1,0,0,1,.47.86c0,.08.1,0,.1-.06A.83.83,0,0,0,19.61,7.44Z"/><g class="cls-25"><path class="cls-26" d="M8.5,21.48a7.23,7.23,0,0,1-.11-5.22c0-.05,0,0-.05,0A7.73,7.73,0,0,0,7.82,19a4.94,4.94,0,0,0,.54,2.62C8.41,21.72,8.53,21.55,8.5,21.48Z"/><path class="cls-26" d="M9,22.17a1.76,1.76,0,0,1-.31-.3s-.09.05-.07.08a1,1,0,0,0,.31.33S9,22.2,9,22.17Z"/><path class="cls-26" d="M11.11,15.36a2.14,2.14,0,0,1-1.06.51A3.09,3.09,0,0,1,9,15.62s0,0,0,0c.34.2.7.52,1.12.43a1.77,1.77,0,0,0,1.05-.57S11.21,15.3,11.11,15.36Z"/><path class="cls-26" d="M7.44,15.75a6.34,6.34,0,0,0-.51.65,4.1,4.1,0,0,0-.43,1c0,.1.1,0,.11,0a5.56,5.56,0,0,1,.36-1,5,5,0,0,1,.48-.65S7.46,15.73,7.44,15.75Z"/><path class="cls-26" d="M6.4,17.59h0l0,0a.21.21,0,0,0,0,.13,0,0,0,0,0,.07,0,.14.14,0,0,0,.07-.1.34.34,0,0,0,0-.14C6.51,17.45,6.41,17.54,6.4,17.59Z"/><path class="cls-26" d="M13.87,14a1.58,1.58,0,0,0-1.26.68s0,0,0,0a1.77,1.77,0,0,1,1.2-.57S13.93,14,13.87,14Z"/><path class="cls-26" d="M14.58,14.73a1.35,1.35,0,0,1-.45-1.16s0,0,0,0a1.15,1.15,0,0,0,.4,1.25S14.6,14.76,14.58,14.73Z"/><path class="cls-26" d="M12.84,22.5a7.31,7.31,0,0,1-4.34.57s-.05,0,0,.05a5.29,5.29,0,0,0,2.13.2,6.37,6.37,0,0,0,2.22-.68S12.91,22.47,12.84,22.5Z"/></g><path class="cls-27" d="M16.21,10.72c.55-.82.27-1.64-.13-1.82s-.76-.05-1,.59a6.46,6.46,0,0,0-1.26-3.31s.13.68.32,1.48c-.76-.32-1.39-1.94-1.39-1.94A7.77,7.77,0,0,0,13,6.83,3.53,3.53,0,0,1,11.28,5,10.2,10.2,0,0,0,10.69,6a2.4,2.4,0,0,1,.06-.91A5.07,5.07,0,0,1,8.8,6.53s.18-.25.57-.85A3.28,3.28,0,0,1,6.82,7a13.55,13.55,0,0,0,.57-1.34C7,6.27,6.09,7.36,5.62,7.46A7,7,0,0,1,6,6.37a9.76,9.76,0,0,0-1,2A3.18,3.18,0,0,0,5,10a15,15,0,0,1,0,2,2,2,0,0,0,1.1,1.49q.3.18.6.33a6,6,0,0,0,4.11.79,6.63,6.63,0,0,0,3.87-2.4,7.84,7.84,0,0,0,.44-1.14C15.33,11.47,15.65,11.55,16.21,10.72Z"/><path class="cls-28" d="M9.92,14.8a7.7,7.7,0,0,1-3.19-.92c-.23-.12-.42-.23-.6-.34A2,2,0,0,1,5,12a6.09,6.09,0,0,1,0-.74A6,6,0,0,0,5,10l0-.12A3,3,0,0,1,5,8.32a9.64,9.64,0,0,1,1-2s0,0,0,0,0,0,0,0a10.37,10.37,0,0,0-.35,1A5.3,5.3,0,0,0,7.35,5.6a0,0,0,1,1,.07,0,12,12,0,0,1-.54,1.29A3.34,3.34,0,0,0,9.34,5.66s0,0,.05,0,0,0,0,0c-.24.38-.41.62-.49.74A5,5,0,0,0,10.72,5.1a0,0,0,0,1,0,0s0,0,0,0a2.26,2.26,0,0,0-.08.76c.12-.22.37-.69.54-.94l0,0,0,0A3.58,3.58,0,0,0,12.9,6.77a7.73,7.73,0,0,1-.14-1s0,0,0,0,0,0,0,0,.59,1.5,1.3,1.88c-.18-.75-.31-1.4-.31-1.41l0,0a0,0,0,0,1,.05,0A6.71,6.71,0,0,1,15.14,9.3c.21-.47.53-.62.95-.44a.85.85,0,0,1,.42.54,1.66,1.66,0,0,1-.27,1.35c-.3.44-.55.65-.76.65h0a.36.36,0,0,1-.31-.21,6.65,6.65,0,0,1-.41,1.06,6.6,6.6,0,0,1-3.89,2.42A3.63,3.63,0,0,1,9.92,14.8Zm-4.12-8A7.64,7.64,0,0,0,5,8.33,3,3,0,0,0,5,9.89L5,10a6.75,6.75,0,0,1,0,1.27c0,.25,0,.5,0,.74a1.93,1.93,0,0,0,1.08,1.46l.6.33a7.51,7.51,0,0,0,3.15.91,3.12,3.12,0,0,0,.93-.13,6.53,6.53,0,0,0,3.85-2.38h0a7.37,7.37,0,0,0,.43-1.13l0,0s0,0,0,0,.17.25.28.25h0c.12,0,.34-.11.69-.63a1.53,1.53,0,0,0,.26-1.28.74.74,0,0,0-.37-.49c-.42-.18-.73,0-.91.58a0,0,0,0,1,0,0,0,0,0,0,1,0,0,6.32,6.32,0,0,0-1.15-3.16c.05.25.15.76.29,1.31a.06.06,0,0,1,0,0h0c-.61-.25-1.11-1.27-1.32-1.73a7.21,7.21,0,0,0,.14.86s0,0,0,0h0a3.56,3.56,0,0,1-1.67-1.81c-.23.34-.55,1-.55,1s0,0,0,0a0,0,0,0,1,0,0,2.49,2.49,0,0,1,0-.75A5.53,5.53,0,0,1,8.81,6.57s0,0-.05,0v0A6.28,6.28,0,0,0,9.12,6,3.34,3.34,0,0,1,6.9,7H6.81l0,0v0a7.38,7.38,0,0,0,.44-1C6.77,6.59,6,7.41,5.63,7.5c0,0,0,0,0,0a0,0,0,0,1,0,0A3.44,3.44,0,0,1,5.8,6.75Z"/><path class="cls-29" d="M17.66,5.36a3,3,0,0,1,.45.35,2.89,2.89,0,0,0-1.38-1.79,2,2,0,0,1,.7.34,3.92,3.92,0,0,0-3.37-2.17,3.05,3.05,0,0,1,.56-.43A2.75,2.75,0,0,0,13,2.09,4.89,4.89,0,0,0,11.65.84l.34.71c-3.6-1.87-7.58,1.6-7.58,1.6A3.27,3.27,0,0,1,5.19,3a5.87,5.87,0,0,0-2.3,2.09,1.85,1.85,0,0,1,.84-.37A4.45,4.45,0,0,0,2.21,7.35,5.65,5.65,0,0,1,2.81,7a.92.92,0,0,0-.19.74,2.06,2.06,0,0,1,.32-.33c-.22,1.22.48,1.67,1.2,2.36A2.59,2.59,0,0,1,5,11.69v.06h0A10.19,10.19,0,0,0,5,10,3.18,3.18,0,0,1,5,8.33a9.76,9.76,0,0,1,1-2,7,7,0,0,0-.37,1.09C6.09,7.36,7,6.27,7.39,5.62A13.55,13.55,0,0,1,6.82,7,3.28,3.28,0,0,0,9.37,5.68c-.39.6-.57.85-.57.85a5.07,5.07,0,0,0,1.95-1.41,2.4,2.4,0,0,0-.06.91A10.2,10.2,0,0,1,11.28,5,3.53,3.53,0,0,0,13,6.83a7.77,7.77,0,0,1-.17-1.11s.63,1.62,1.39,1.94c-.19-.8-.32-1.48-.32-1.48a6.46,6.46,0,0,1,1.26,3.31c.2-.64.55-.77,1-.59s.68,1,.13,1.82-.88.75-1,.37a7.84,7.84,0,0,1-.44,1.14,3.27,3.27,0,0,0,2.2-3.48,1.91,1.91,0,0,1,.34.84,4.62,4.62,0,0,0,.3-2.88,1.42,1.42,0,0,1,.54.52A2.17,2.17,0,0,0,17.66,5.36Z"/><path class="cls-30" d="M14.73,12.27h0a.07.07,0,0,1,0,0,6.72,6.72,0,0,0,.44-1.13l0,0s0,0,0,0,.17.25.28.25.34-.11.69-.63a1.53,1.53,0,0,0,.26-1.28.74.74,0,0,0-.37-.49c-.42-.18-.73,0-.91.58a0,0,0,0,1,0,0,0,0,0,0,1,0,0,6.32,6.32,0,0,0-1.15-3.16c.05.25.15.75.29,1.3v0a0,0,0,0,1,0,0h0c-.61-.25-1.11-1.27-1.32-1.73a7.42,7.42,0,0,0,.14.85s0,0,0,0a0,0,0,0,1,0,0h0a3.56,3.56,0,0,1-1.67-1.81c-.23.34-.55,1-.55,1s0,0,0,0a0,0,0,0,1,0,0,2.49,2.49,0,0,1,0-.75A5.53,5.53,0,0,1,8.81,6.57s0,0-.05,0v0A6.28,6.28,0,0,0,9.12,6,3.34,3.34,0,0,1,6.9,7H6.81l0,0v0a7.38,7.38,0,0,0,.44-1C6.77,6.59,6,7.41,5.63,7.5c0,0,0,0,0,0a0,0,0,0,1,0,0,3.44,3.44,0,0,1,.21-.71A7.64,7.64,0,0,0,5,8.33,3,3,0,0,0,5,9.89L5,10a11.4,11.4,0,0,1,0,1.74s0,0,0,0H5s0,0,0,0v0a0,0,0,0,1,0,0,2.54,2.54,0,0,0-.87-1.91l-.27-.25a2.13,2.13,0,0,1-.95-2,1.63,1.63,0,0,0-.24.25s0,0,0,0a0,0,0,0,1,0,0,1,1,0,0,1,.1-.62,3.57,3.57,0,0,0-.45.27h0s0,0,0,0A4.58,4.58,0,0,1,3.58,4.83a1.77,1.77,0,0,0-.67.33H2.86a0,0,0,0,1,0,0A6.42,6.42,0,0,1,5,3.1a2.76,2.76,0,0,0-.54.08,0,0,0,1,1,0-.06A9.4,9.4,0,0,1,9.68,1a5,5,0,0,1,2.23.51L11.62.86s0,0,0,0a0,0,0,0,1,0,0A4.87,4.87,0,0,1,13,2a2.76,2.76,0,0,1,1.46-.42h.12a.05.05,0,0,1,0,0,.08.08,0,0,1,0,.05,3.1,3.1,0,0,0-.48.35h.05a4.05,4.05,0,0,1,3.25,2.18v0s0,0,0,0h0A3.5,3.5,0,0,0,17,4.07a2.76,2.76,0,0,1,1.1,1.62v0s0,0,0,0h0l-.22-.18a2.59,2.59,0,0,1,.28,1.68s0,0,0,0,0,0,0,0a1.82,1.82,0,0,0-.45-.47A4.86,4.86,0,0,1,17.3,9.6s0,0,0,0a0,0,0,0,1,0,0A1.53,1.53,0,0,0,17,8.91a3.37,3.37,0,0,1-2.24,3.36Zm.44-1.08a7.07,7.07,0,0,1-.36,1,3.23,3.23,0,0,0,2.08-3.4,0,0,0,0,1,0,0,0,0,0,0,1,.05,0,2.3,2.3,0,0,1,.33.72,4.53,4.53,0,0,0,.24-2.72s0,0,0,0h.05a1.32,1.32,0,0,1,.49.45,2.07,2.07,0,0,0-.45-1.73,0,0,0,0,1,0,0,0,0,0,0,1,.05,0s.13.08.37.27A3,3,0,0,0,16.71,4a.08.08,0,0,1,0-.05l0,0a1.85,1.85,0,0,1,.57.26,3.92,3.92,0,0,0-3.1-2h-.14l0,0s0,0,0,0a2.27,2.27,0,0,1,.45-.37,2.66,2.66,0,0,0-1.44.42h0l0,0A4.84,4.84,0,0,0,11.74.94l.28.6a0,0,0,0,1,0,0s0,0,0,0A4.84,4.84,0,0,0,9.68,1a9.08,9.08,0,0,0-5.13,2c.12,0,.32-.05.64-.08,0,0,0,0,0,0a.08.08,0,0,1,0,.05A5.43,5.43,0,0,0,3,5a1.85,1.85,0,0,1,.68-.26.05.05,0,0,1,0,0,0,0,0,0,1,0,0A4.44,4.44,0,0,0,2.26,7.27,4.82,4.82,0,0,1,2.8,7s0,0,0,0a0,0,0,0,1,0,0,.89.89,0,0,0-.2.61c.06,0,.14-.14.27-.25s0,0,0,0a.05.05,0,0,1,0,0A2,2,0,0,0,3.9,9.48l.26.26A2.43,2.43,0,0,1,5,11.39,7.9,7.9,0,0,0,5,10l0-.12A3,3,0,0,1,5,8.32a9.64,9.64,0,0,1,1-2s0,0,0,0,0,0,0,0a10.37,10.37,0,0,0-.35,1A5.3,5.3,0,0,0,7.35,5.6a0,0,0,1,1,.07,0,12,12,0,0,1-.54,1.29A3.34,3.34,0,0,0,9.34,5.66s0,0,.05,0,0,0,0,0c-.24.38-.41.62-.49.74A5,5,0,0,0,10.72,5.1a0,0,0,0,1,0,0s0,0,0,0a2.26,2.26,0,0,0-.08.76c.12-.22.37-.69.54-.94l0,0,0,0A3.58,3.58,0,0,0,12.9,6.77a7.73,7.73,0,0,1-.14-1s0,0,0,0,0,0,0,0,.59,1.5,1.3,1.88c-.18-.75-.31-1.4-.31-1.41l0,0a0,0,0,0,1,.05,0A6.71,6.71,0,0,1,15.14,9.3c.21-.47.53-.62.95-.44a.85.85,0,0,1,.42.54,1.66,1.66,0,0,1-.27,1.35c-.3.44-.55.65-.76.65A.34.34,0,0,1,15.17,11.19Z"/><path class="cls-31" d="M8.14,12.87a6.13,6.13,0,0,0,3.27-.51c.05-.15.15-.17.15-.17a.43.43,0,0,0,0,.42.29.29,0,0,1-.15-.1s-.2.51-.41.92a1.19,1.19,0,0,1-1.42.67C8.84,13.89,8.63,13.21,8.14,12.87Z"/><path class="cls-32" d="M10.3,9.15S12.23,7.89,13,8.62C12.67,7.88,11.09,7.6,10.3,9.15Z"/><path class="cls-32" d="M8,9.35S6.86,8.41,5.91,9C6.1,8.51,7.27,8,8,9.35Z"/><path class="cls-32" d="M10.56,10.71a2.42,2.42,0,0,0,2,.11.48.48,0,0,0,0,.38s.31-1.28,1.34-1.13a.73.73,0,0,0-.64-.13A1.29,1.29,0,0,0,11.79,9,1.55,1.55,0,0,0,10.56,10.71Z"/><path class="cls-32" d="M8.26,10.72A1.66,1.66,0,0,1,6.79,11a.67.67,0,0,1,.13.47s-.67-1.28-1.69-.74a.66.66,0,0,1,.5-.33S5.65,9.08,6.77,9,8.22,10.17,8.26,10.72Z"/><path class="cls-28" d="M15.82,9.55c.26-.13.35.22.37.39s0,0,0,0c0-.22-.14-.41-.35-.29a.48.48,0,0,0-.17.27.94.94,0,0,0-.06.15,1.64,1.64,0,0,1,.29.35s0,0,0,0a1.63,1.63,0,0,0-.17-.2l-.09-.1,0,0c-.05.15-.08.31-.12.46s-.06,0-.06,0C15.4,10.22,15.52,9.69,15.82,9.55Z"/><path class="cls-33" d="M16.19,10.2c0-.22,0-.63-.29-.68s-.36.25-.43.44-.16.52,0,.69S16.13,10.45,16.19,10.2Z"/><path class="cls-28" d="M9.81,11.91a1.51,1.51,0,0,1-.47.09,1.36,1.36,0,0,1-.49-.12c-.08,0-.27-.14-.17-.26a2,2,0,0,1,.16-.14,1.41,1.41,0,0,0,.31-.34s0,0,0,0c-.15.16-.32.29-.48.44a.18.18,0,0,0,0,.24c.09.18.34.24.51.28A.85.85,0,0,0,9.82,12S9.84,11.91,9.81,11.91Z"/><path class="cls-32" d="M9.14,10.91a2.56,2.56,0,0,1-.55.61c-.32.28-.16.69.59.79a.7.7,0,0,0,.85-.54c0-.23-.49.47-1.22,0-.16-.12-.11-.15.09-.33S9.22,11.11,9.14,10.91Z"/><path class="cls-32" d="M8.9,12a.85.85,0,0,0,.91-.07C9.78,12.16,9.35,12.48,8.9,12Z"/><path class="cls-24" d="M9.31,10.92a.87.87,0,0,1-.38.6c-.33.21.27.42.51,0S9.37,10.51,9.31,10.92Z"/><path class="cls-29" d="M6,8.81s.69-.67,1.86.29C7.44,8.29,6.78,7.81,6,8.81Z"/><path class="cls-30" d="M7.85,9.14h0a1.9,1.9,0,0,0-1.18-.51A1,1,0,0,0,6,8.84H6a0,0,0,0,1,0-.05,1.22,1.22,0,0,1,.9-.58c.48,0,.82.47,1,.88,0,0,0,0,0,0Zm-1.2-.6A1.82,1.82,0,0,1,7.73,9c-.2-.34-.49-.68-.87-.68a1,1,0,0,0-.68.36A1.17,1.17,0,0,1,6.65,8.54Z"/><path class="cls-29" d="M10.49,8.85S12.19,7.6,13,8.48C12.57,7.64,11.63,7.32,10.49,8.85Z"/><path class="cls-30" d="M10.49,8.89h0a0,0,0,0,1,0-.05A2.18,2.18,0,0,1,12,7.74a1.08,1.08,0,0,1,1,.72,0,0,0,1,1-.06,0,.89.89,0,0,0-.71-.3,3.75,3.75,0,0,0-1.7.68ZM12,7.81a1.93,1.93,0,0,0-1.35.88,3.16,3.16,0,0,1,1.54-.56,1,1,0,0,1,.6.17A1,1,0,0,0,12,7.81Z"/><path class="cls-28" d="M11.54,12.45l0-.06v0a.29.29,0,0,1,0-.09s0,0,0,0a.33.33,0,0,0,0,.12,4.59,4.59,0,0,1-1.44.47,3.8,3.8,0,0,1-1.71.07s0,0,0,0l.12.05a4.19,4.19,0,0,0,.81.82,1.11,1.11,0,0,0,1,.14c.71-.21.87-.92,1.17-1.5l0,0a.06.06,0,0,0,0,.07S11.56,12.46,11.54,12.45Z"/><path class="cls-4" d="M9.91,13.35a1.91,1.91,0,0,0,1.39-.82,4.44,4.44,0,0,1-1.45.41C9.57,13,9.3,13,9,13H8.85A1.06,1.06,0,0,0,9.91,13.35Z"/><path class="cls-34" d="M9.65,13.92a.94.94,0,0,0,.55,0,1.31,1.31,0,0,0,.75-.55A1.27,1.27,0,0,0,9.65,13.92Z"/><path class="cls-35" d="M11.36,12.5l-.06,0a1.91,1.91,0,0,1-1.39.82,1.06,1.06,0,0,1-1.06-.3,1.58,1.58,0,0,1-.38,0,3.18,3.18,0,0,0,1.18.9,1.27,1.27,0,0,1,1.3-.56.64.64,0,0,0,.1-.18A5.24,5.24,0,0,1,11.36,12.5Z"/><path class="cls-4" d="M5.9,10.45s1.31.93,2.22.2C7.94,9.46,7.19,9.18,6.8,9.19A1.07,1.07,0,0,0,5.9,10.45Z"/><path class="cls-28" d="M5.9,10.45l.26.14.27.13.14,0,.14,0,.14,0,.14,0,.15,0h.29l.15,0,.13,0a.84.84,0,0,0,.14-.06l.06,0s0,0,.06,0l.12-.08v0c0-.08,0-.16-.05-.23A.88.88,0,0,0,8,10.19l0-.11,0-.11a.47.47,0,0,0,0-.1l-.06-.1a.61.61,0,0,1-.07-.1l-.08-.09L7.52,9.5l-.09-.07-.1-.06-.1,0L7,9.24l-.23,0-.11,0-.11,0a1.39,1.39,0,0,0-.21.11,1.29,1.29,0,0,0-.17.16.86.86,0,0,1-.07.1L6,9.75a.54.54,0,0,0,0,.11A.49.49,0,0,0,6,10l0,.12s0,.08,0,.12A1.93,1.93,0,0,0,5.9,10.45Zm0,0a1.93,1.93,0,0,1,0-.24.5.5,0,0,1,0-.12.51.51,0,0,1,0-.13l0-.11a1.17,1.17,0,0,1,0-.11l.06-.11a.86.86,0,0,1,.07-.1,1.45,1.45,0,0,1,.17-.18,1.55,1.55,0,0,1,.22-.12l.11,0,.13,0a1.06,1.06,0,0,1,.25,0l.23.07.12.06.1.07.1.07.09.09.08.09.08.09.06.11a.6.6,0,0,1,.06.11l0,.11,0,.12a1.55,1.55,0,0,1,.06.23c0,.08,0,.16.05.24h0s0,0,0,0L8,10.76,8,10.8l-.07,0a.84.84,0,0,1-.14.06l-.15,0-.15,0h-.3l-.15,0-.15,0-.15-.05-.14,0-.13-.06a1.13,1.13,0,0,1-.27-.13Z"/><path class="cls-4" d="M10.72,10.57s1.6.92,2.43-.5a1.17,1.17,0,0,0-1.81-.67A1.48,1.48,0,0,0,10.72,10.57Z"/><path class="cls-28" d="M10.72,10.57a2.37,2.37,0,0,0,.65.22,2,2,0,0,0,.34.05h.17l.17,0,.17,0,.16-.06.15-.08a1.19,1.19,0,0,0,.15-.09l.13-.11.11-.12a.76.76,0,0,0,.11-.14l.09-.14v0a1.21,1.21,0,0,0-.09-.2.31.31,0,0,0,0-.1l-.06-.09-.07-.09-.08-.08-.17-.14-.1-.05-.1,0-.1,0-.11,0-.22,0h-.11l-.11,0a.58.58,0,0,0-.21.07l-.19.1-.18.15a.27.27,0,0,0-.07.08s0,.06-.08.08l-.06.1-.06.09a1,1,0,0,0-.09.21A1.33,1.33,0,0,0,10.72,10.57Zm0,0a1.18,1.18,0,0,1,.07-.45,1.8,1.8,0,0,1,.08-.21l.06-.1.06-.1.07-.09.08-.08.18-.16a1,1,0,0,1,.2-.12l.22-.08.11,0h.35a.35.35,0,0,1,.11,0,.53.53,0,0,1,.12,0l.11,0,.1.05a1.3,1.3,0,0,1,.18.15.3.3,0,0,1,.08.08l.08.09.06.1a.53.53,0,0,1,.06.1,2,2,0,0,1,.09.22,0,0,0,0,1,0,0h0l-.09.15a1.71,1.71,0,0,0-.11.14l-.13.12-.13.12-.15.09-.16.08-.17.05-.18,0a2.07,2.07,0,0,1-.7,0A2.53,2.53,0,0,1,10.72,10.57Z"/><path class="cls-36" d="M7.69,10.07a.71.71,0,0,1-.62.75.67.67,0,0,1-.6-.74.71.71,0,0,1,.61-.76A.69.69,0,0,1,7.69,10.07Z"/><path class="cls-37" d="M7.69,10.07a.71.71,0,0,1-.62.75.67.67,0,0,1-.6-.74.71.71,0,0,1,.61-.76A.69.69,0,0,1,7.69,10.07Z"/><path class="cls-38" d="M7.54,10.1a.53.53,0,0,1-.47.57.52.52,0,0,1-.46-.57.53.53,0,0,1,.47-.57A.52.52,0,0,1,7.54,10.1Z"/><path class="cls-39" d="M7.46,10.07a.41.41,0,0,1-.37.45.41.41,0,0,1-.36-.45.42.42,0,0,1,.37-.45A.41.41,0,0,1,7.46,10.07Z"/><g class="cls-40"><path class="cls-41" d="M6.48,10a.45.45,0,0,0,0,.12.67.67,0,0,0,.6.74.71.71,0,0,0,.62-.75s0-.08,0-.11A1.05,1.05,0,0,1,6.48,10Z"/></g><path class="cls-4" d="M7,9.89c0,.13-.11.23-.22.22a.21.21,0,0,1-.16-.25c0-.13.11-.23.22-.22A.21.21,0,0,1,7,9.89Z"/><path class="cls-4" d="M6.87,10.29a.11.11,0,0,1-.1.11.11.11,0,0,1-.08-.12c0-.06.06-.11.1-.11A.1.1,0,0,1,6.87,10.29Z"/><path class="cls-36" d="M12.59,10a.74.74,0,0,1-.64.8.72.72,0,0,1-.64-.79.74.74,0,0,1,.64-.8A.72.72,0,0,1,12.59,10Z"/><path class="cls-37" d="M12.59,10a.74.74,0,0,1-.64.8.72.72,0,0,1-.64-.79.74.74,0,0,1,.64-.8A.72.72,0,0,1,12.59,10Z"/><path class="cls-38" d="M12.44,10.07a.57.57,0,0,1-.49.61.55.55,0,0,1-.49-.61.55.55,0,0,1,.49-.6A.55.55,0,0,1,12.44,10.07Z"/><path class="cls-39" d="M12.36,10a.45.45,0,0,1-.39.48.44.44,0,0,1-.39-.48A.46.46,0,0,1,12,9.56.44.44,0,0,1,12.36,10Z"/><g class="cls-40"><path class="cls-41" d="M11.32,9.92a.53.53,0,0,0,0,.13.72.72,0,0,0,.64.79.74.74,0,0,0,.64-.8.49.49,0,0,0,0-.12A1.08,1.08,0,0,1,11.32,9.92Z"/></g><path class="cls-4" d="M11.86,9.85a.24.24,0,0,1-.23.23.21.21,0,0,1-.17-.26.2.2,0,1,1,.4,0Z"/><path class="cls-4" d="M11.73,10.28a.11.11,0,0,1-.1.11c-.06,0-.09-.06-.09-.13a.12.12,0,0,1,.11-.11A.11.11,0,0,1,11.73,10.28Z"/><path class="cls-28" d="M10.66,14.15a.78.78,0,0,1-.65.16s0,0,0,0a.63.63,0,0,0,.66-.15S10.69,14.14,10.66,14.15Z"/><path class="cls-31" d="M10,14.33a.68.68,0,0,0,.66-.18A.38.38,0,0,1,10,14.33Z"/><g class="cls-9"><path class="cls-42" d="M7.84,9.85c.32.7-.28.91-1.12.7S6,9.91,6,9.77a1.41,1.41,0,0,0-.11.68s1.31.93,2.22.2a2.15,2.15,0,0,0-.31-.86Z"/></g><g class="cls-9"><path class="cls-42" d="M11.56,10.46c-.82-.11-.63-.59-.58-.7a1.53,1.53,0,0,0-.26.81s1.6.92,2.43-.5a1.3,1.3,0,0,0-.37-.59l0,0C13.22,10,12.5,10.58,11.56,10.46Z"/></g><path class="cls-28" d="M5.29,10.69l.06-.06.09-.05,0,0,.06,0a.66.66,0,0,1,.15,0H6l.09,0s.11,0,.17.08l.08,0,.07.06.07.05.07.07.11.12.09.12.06.11a.56.56,0,0,0,.05.08.22.22,0,0,0,0,.07l-.06-.06,0-.08a.73.73,0,0,1-.08-.09L6.57,11l-.11-.11-.06-.06-.07-.05-.07,0-.08-.05L6,10.59l-.08,0H5.7l-.14,0-.11,0a.19.19,0,0,0-.09,0Z"/><path class="cls-28" d="M12.59,11.06a1.15,1.15,0,0,1,.07-.27,1.12,1.12,0,0,1,.11-.26,1.59,1.59,0,0,1,.18-.27l.13-.12.14-.08a.44.44,0,0,1,.15-.05h.25l.08,0,.07,0h-.26a.76.76,0,0,0-.5.27c-.07.08-.13.17-.19.25a1.87,1.87,0,0,0-.12.25A2.64,2.64,0,0,0,12.59,11.06Z"/><path class="cls-43" d="M5.23,10.81c-.14.09-.13.23.09.34s.46.11.67.21.44.41.61.36.06-.54,0-.67A1,1,0,0,0,5.23,10.81Z"/><path class="cls-43" d="M14.18,10.17c.17.06.18.21,0,.37s-.46.2-.65.35-.38.52-.56.49-.18-.53-.09-.7A1.08,1.08,0,0,1,14.18,10.17Z"/><g class="cls-44"><path class="cls-45" d="M16.08,8.9c-.41-.18-.76-.05-1,.59a6.46,6.46,0,0,0-1.26-3.31s.13.68.32,1.48c-.76-.32-1.39-1.94-1.39-1.94A7.77,7.77,0,0,0,13,6.83,3.53,3.53,0,0,1,11.28,5,10.2,10.2,0,0,0,10.69,6a2.4,2.4,0,0,1,.06-.91A5.07,5.07,0,0,1,8.8,6.53s.18-.25.57-.85A3.28,3.28,0,0,1,6.82,7a13.55,13.55,0,0,0,.57-1.34C7,6.27,6.09,7.36,5.62,7.46A7,7,0,0,1,6,6.37a9.76,9.76,0,0,0-1,2A3.18,3.18,0,0,0,5,10a15,15,0,0,1,0,2,2,2,0,0,0,1.1,1.49q.3.18.6.33a6,6,0,0,0,4.11.79,6.63,6.63,0,0,0,3.87-2.4,7.84,7.84,0,0,0,.44-1.14c.16.38.48.46,1-.37S16.48,9.08,16.08,8.9Zm-2,3.16a4.73,4.73,0,0,1-3.81,2.4C8.77,14.74,7.07,13.73,6,13s-.5-2.51-.68-3.22c-.25-1.09.13-1.5.13-1.5A6.06,6.06,0,0,0,6.54,7.19l0,.33a6.77,6.77,0,0,0,1.93-.59s.78.11,2-1c0,.91.38.58.83-.25.46,1,1.88,1.87,1.9,1.42.28.73,1.2,1.44,1.27,1A5.35,5.35,0,0,1,14.12,12.06Z"/></g><path class="cls-46" d="M6.38,8.49a1,1,0,0,1,1.18.26A.75.75,0,0,0,6.38,8.49Z"/><path class="cls-46" d="M11,8.44s.9-.88,1.72-.29C12.45,7.66,11.53,7.69,11,8.44Z"/><g class="cls-47"><path class="cls-29" d="M18,7.12a3,3,0,0,0-2.07-2s.46,2.2.32,1.57a6.49,6.49,0,0,0-1.36-2,8,8,0,0,1,.21,2.41c-.35-1.46-1.22-1.92-1.68-2.79a6.74,6.74,0,0,0,0,1.82,13.57,13.57,0,0,1-1-3,4.82,4.82,0,0,0,0,2.58,6.13,6.13,0,0,1-.91-1.85l-.62,1.05a5.22,5.22,0,0,1,.27-1.29,11.78,11.78,0,0,1-1.43,2,8,8,0,0,0,.32-1.4,4.33,4.33,0,0,1-2.62,2.2,7.72,7.72,0,0,0,.73-1.89A23.72,23.72,0,0,0,6.26,6.44,6.89,6.89,0,0,1,7,5,8.77,8.77,0,0,0,4.87,7.38a3.77,3.77,0,0,1,2.2-2.93A5.13,5.13,0,0,0,3.72,5.91,4.93,4.93,0,0,1,6,3.93,12.59,12.59,0,0,0,3,5a1,1,0,0,0-.11.16,1.85,1.85,0,0,1,.84-.37A4.45,4.45,0,0,0,2.21,7.35,5.65,5.65,0,0,1,2.81,7a.92.92,0,0,0-.19.74,2.06,2.06,0,0,1,.32-.33c-.22,1.22.48,1.67,1.2,2.36A2.59,2.59,0,0,1,5,11.69v.06h0A10.19,10.19,0,0,0,5,10,3.18,3.18,0,0,1,5,8.33a9.76,9.76,0,0,1,1-2,7,7,0,0,0-.37,1.09C6.09,7.36,7,6.27,7.39,5.62A13.55,13.55,0,0,1,6.82,7,3.28,3.28,0,0,0,9.37,5.68c-.39.6-.57.85-.57.85a5.07,5.07,0,0,0,1.95-1.41,2.4,2.4,0,0,0-.06.91A10.2,10.2,0,0,1,11.28,5,3.53,3.53,0,0,0,13,6.83a7.77,7.77,0,0,1-.17-1.11s.63,1.62,1.39,1.94c-.19-.8-.32-1.48-.32-1.48a6.46,6.46,0,0,1,1.26,3.31c.2-.64.55-.77,1-.59s.68,1,.13,1.82-.88.75-1,.37a7.84,7.84,0,0,1-.44,1.14,3.27,3.27,0,0,0,2.2-3.48,1.91,1.91,0,0,1,.34.84,4.62,4.62,0,0,0,.3-2.88A1.22,1.22,0,0,1,18,7.12Z"/></g><g class="cls-47"><path class="cls-29" d="M12.13,1.83a2.84,2.84,0,0,0-2.76.11,3.5,3.5,0,0,1,2.9.28c-.95-.18-1.22.41-1.22.41a2.66,2.66,0,0,1,2.82.7.78.78,0,0,0-.45-.91s1.64.15,2.13,1.16A2.7,2.7,0,0,0,14.5,2.39a2.83,2.83,0,0,1,.64-.12,2.58,2.58,0,0,0-1.08-.18,3.05,3.05,0,0,1,.56-.43A2.75,2.75,0,0,0,13,2.09,4.89,4.89,0,0,0,11.65.84l.34.71-.18-.09A1.76,1.76,0,0,1,12.13,1.83Z"/></g><path class="cls-48" d="M8.59,2.7c-.34.44.12.21,1-.23s.05.12-.57,1.07c-.43.74.83-.35,1.67-1.17s0,1.48-.47,2.32a8.56,8.56,0,0,0,0-1.22A13.2,13.2,0,0,1,8.36,5.64,3.78,3.78,0,0,0,8.6,3.58S7.8,4.41,7.28,5a7.76,7.76,0,0,1,.94-1.64A10.75,10.75,0,0,0,5.43,4.66a11.3,11.3,0,0,1,2-1.47A4.75,4.75,0,0,0,4.52,4c0-.31.3-.63,1.32-1.33a7,7,0,0,1,4.22-1.48A5.65,5.65,0,0,0,7.81,2C6.7,2.75,9.4,1.64,8.59,2.7Z"/><path class="cls-48" d="M12.27,2.91a3.76,3.76,0,0,0-.11,1.86A1.28,1.28,0,0,1,12.27,2.91Z"/><path class="cls-48" d="M12.79,3.22a4.43,4.43,0,0,0,.34,1.54,2.27,2.27,0,0,1,.12-1.22,6.8,6.8,0,0,1,1.57,2.2c-.22-1.44-.35-2-.35-2a5.64,5.64,0,0,1,1.15,1.34c.47.78-.19-1-.44-1.32s1.54.56,2.23,1.22c-1.13-1.15-2-2.22-2-2.22l.32.88a6.1,6.1,0,0,0-1.57-.81,2,2,0,0,1,.1,1.1A1.9,1.9,0,0,0,12.79,3.22Z"/><path class="cls-27" d="M5.07,10.56s-.12-1-.73-.87A1,1,0,0,0,4,11.39c.51.56,1,.44,1,.27A6.54,6.54,0,0,0,5.07,10.56Z"/><path class="cls-28" d="M4.79,11.84h0a1.09,1.09,0,0,1-.8-.43,1.2,1.2,0,0,1-.27-1.19.8.8,0,0,1,.62-.56h.09c.56,0,.67.87.68.91a6.48,6.48,0,0,1,0,1.1C5.09,11.77,5,11.84,4.79,11.84ZM4.43,9.72H4.35a.74.74,0,0,0-.56.51,1.14,1.14,0,0,0,.26,1.12,1,1,0,0,0,.74.4h0c.13,0,.23,0,.23-.1a6.4,6.4,0,0,0,0-1.09S4.92,9.72,4.43,9.72Z"/><path class="cls-32" d="M5.07,10.56s-.1-.81-.58-.87c.09.09,0,.23,0,.35a.58.58,0,0,1-.2.18c-.29.19-.16.43,0,.67s.28.41.2.6a.34.34,0,0,1-.1.16c.39.25.71.15.73,0A6.54,6.54,0,0,0,5.07,10.56Z"/><path class="cls-28" d="M4.5,10.29c-.24-.09-.29.22-.29.37s0,0,0,0c0-.19.09-.36.28-.28a.5.5,0,0,1,.17.21l.06.13a1.66,1.66,0,0,0-.22.32s0,0,0,0a2.12,2.12,0,0,1,.12-.2l.08-.09h0c0,.12.09.25.14.38s.05,0,.05,0C4.9,10.83,4.76,10.39,4.5,10.29Z"/><path class="cls-33" d="M4.23,10.88c-.06-.18,0-.54.19-.61s.33.19.4.35.18.42.07.58S4.3,11.09,4.23,10.88Z"/><path class="cls-49" d="M10.42,13.5c0,.05-.05.14-.17.2s-.23.06-.25,0,0-.13.16-.19S10.4,13.45,10.42,13.5Z"/><path class="cls-49" d="M10.64,13.42s0,.06-.06.07-.08,0-.09,0,0-.06.06-.07A.06.06,0,0,1,10.64,13.42Z"/><path class="cls-10" d="M13.2,7.14c0,.45-1.44-.43-1.9-1.42-.45.83-.83,1.16-.83.25-1.25,1.07-2,1-2,1a6.77,6.77,0,0,1-1.93.59l0-.33A6.06,6.06,0,0,1,5.4,8.25s-.38.41-.13,1.5c.18.71-.43,2.46.68,3.22s2.82,1.77,4.36,1.49a4.73,4.73,0,0,0,3.81-2.4,5.35,5.35,0,0,0,.35-3.93C14.4,8.58,13.48,7.87,13.2,7.14Z"/><path class="cls-50" d="M5.48,7.72c0,.26.81-.47,1.26-1l-.12.48a5.21,5.21,0,0,0,2.09-.86c-.16.3-.14.39-.14.39A5.8,5.8,0,0,0,10.5,5.57c.08.6.06.94.26.6s.47-.89.47-.89S12.15,7,13.13,7c-.06-.35-.08-.44-.08-.44s.62,1.29,1.27,1.31a5.47,5.47,0,0,1-.06-.77A6.33,6.33,0,0,1,15,9.6c0,.76.29-.68,1-.72H16c-.38-.13-.7,0-.89.62a6.46,6.46,0,0,0-1.26-3.31s.13.68.32,1.48c-.76-.32-1.39-1.94-1.39-1.94A7.77,7.77,0,0,0,13,6.83,3.53,3.53,0,0,1,11.28,5,10.2,10.2,0,0,0,10.69,6a2.4,2.4,0,0,1,.06-.91A5.07,5.07,0,0,1,8.8,6.53s.18-.25.57-.85A3.28,3.28,0,0,1,6.82,7a13.55,13.55,0,0,0,.57-1.34C7,6.27,6.09,7.36,5.62,7.46A7,7,0,0,1,6,6.37,10.43,10.43,0,0,0,5,8.28,3.39,3.39,0,0,1,5.48,7.72Z"/></g></g></svg>