<svg xmlns="http://www.w3.org/2000/svg" viewBox="0 0 23.38 38.25"><defs><style>.cls-1{isolation:isolate;}.cls-2{fill:#323c5a;}.cls-3{fill:#a2bfdc;}.cls-4,.cls-8{fill:#a3b7bf;}.cls-4{opacity:0.46;mix-blend-mode:multiply;}.cls-5{fill:#4890c0;}.cls-6{fill:#c7eafb;}.cls-7{fill:#052630;}.cls-9{fill:#5d8294;}.cls-10{fill:#70c27a;}.cls-11{fill:#010101;}.cls-12{fill:#1e191b;}</style></defs><title>robot</title><g class="cls-1"><g id="Layer_1" data-name="Layer 1"><rect class="cls-2" x="10.19" y="22.91" width="1.7" height="3.1"/><path class="cls-2" d="M8.87,33.2a.56.56,0,0,1-.48-.61l.78-6.65a.54.54,0,0,1,.61-.47.53.53,0,0,1,.47.6l-.78,6.65A.54.54,0,0,1,8.87,33.2Z"/><path class="cls-2" d="M13.44,33l-1-6.93a.55.55,0,0,1,.46-.61.54.54,0,0,1,.62.46l1,6.93a.54.54,0,0,1-1.07.15Z"/><path class="cls-3" d="M9.78,30.2l.09,6.05-3.33-.13L8,30.19a1.1,1.1,0,0,1,.44-.7,1.16,1.16,0,0,1,.76,0A1,1,0,0,1,9.78,30.2Z"/><path class="cls-4" d="M9.78,30.2a.54.54,0,0,0,0-.21c-.26,2.33-1,5.85-3.19,6.13l3.33.13Z"/><path class="cls-5" d="M8.21,36.19l.17-2.06,1.46.16v-.1L8.39,34l.4-4.63h-.1L8.4,32.84H7.35v0l0,0H8.39l-.28,3.26Z"/><path class="cls-5" d="M8.5,33.91a0,0,0,0,0,0,0,0,0,0,0,0,.05,0s0,0-.05,0A0,0,0,0,0,8.5,33.91Z"/><path class="cls-5" d="M8.28,32.7a.05.05,0,0,0,.05,0,.06.06,0,0,0,.05,0,.05.05,0,0,0-.05-.05A0,0,0,0,0,8.28,32.7Z"/><path class="cls-6" d="M10.11,37.07s-4,0-4.34-.1.8-1.07,1.37-1.24c1.06-.32,2.6.07,2.85.67S10.11,37.07,10.11,37.07Z"/><path class="cls-2" d="M9.73,36.75s.14-.08-.11-.67L9.56,36a.92.92,0,0,1,.43.42c.26.59.12.67.12.67s-4,0-4.34-.1c-.08,0-.06-.14,0-.26C6.89,36.78,9.73,36.75,9.73,36.75Z"/><path class="cls-3" d="M12.89,30,12.8,36l3.36-.12L14.69,30a1.07,1.07,0,0,0-.45-.7,1.13,1.13,0,0,0-.77,0A.94.94,0,0,0,12.89,30Z"/><path class="cls-4" d="M12.89,30a.53.53,0,0,1,0-.2c.27,2.32,1,5.85,3.22,6.14L12.8,36Z"/><path class="cls-5" d="M14.29,32.71h1.08l0-.09H14.29L14,29.19h-.1l.4,4.64L12.83,34h0v.08l1.47-.16L14.48,36h.09Z"/><path class="cls-5" d="M14.18,33.69a0,0,0,0,1,0,0,0,0,0,0,1-.05,0,0,0,0,0,1,.05,0A0,0,0,0,1,14.18,33.69Z"/><path class="cls-5" d="M14.41,32.47a.05.05,0,0,1-.05.05,0,0,0,0,1,0-.05.05.05,0,0,1,0,0A.06.06,0,0,1,14.41,32.47Z"/><path class="cls-6" d="M12.56,36.85s4.07,0,4.37-.1-.8-1.07-1.37-1.24c-1.08-.32-2.63.08-2.89.67S12.56,36.85,12.56,36.85Z"/><path class="cls-2" d="M12.94,36.53s-.14-.08.12-.67l0-.1a1,1,0,0,0-.44.42c-.25.59-.11.67-.11.67s4.07,0,4.37-.1c.09,0,.06-.13,0-.26C15.8,36.56,12.94,36.53,12.94,36.53Z"/><path class="cls-3" d="M8.65,25.17c-1.29,0,.85,3.31,2.63,3.31,1.48,0,3.77-3.28,2.48-3.28Z"/><path class="cls-4" d="M13.76,25.2h-.58c-.49,1-1.72,2.22-2.64,2.22a3.15,3.15,0,0,1-2.09-1.19c.46,1,1.72,2.26,2.83,2.26C12.76,28.48,15.05,25.2,13.76,25.2Z"/><rect class="cls-2" x="8" y="24.91" width="6.41" height="1.19" rx="0.39" ry="0.39"/><path class="cls-3" d="M8.56,24.11H13.3a6.6,6.6,0,0,0,2-3.12,4.34,4.34,0,0,0,0-1.84,3.16,3.16,0,0,0-2.2-1.6,21,21,0,0,0-4-.11,1.29,1.29,0,0,0-.46.14,3.69,3.69,0,0,0-1.89,1.65,4.34,4.34,0,0,0,0,1.93A5.8,5.8,0,0,0,8.56,24.11Z"/><ellipse class="cls-7" cx="10.99" cy="17.98" rx="1.7" ry="0.59"/><path class="cls-8" d="M11,17.39h-.13c.88,0,1.57.27,1.57.58s-.69.56-1.57.58H11c.94,0,1.7-.27,1.7-.59S11.93,17.39,11,17.39Z"/><path class="cls-5" d="M11.89,24.11c.21-2.21.58-4.52,2-6.26a4.07,4.07,0,0,0-.38-.17,8.08,8.08,0,0,0-1.27,2.41,13.83,13.83,0,0,0-2.49.08,7.82,7.82,0,0,0-1.17-2.58,3.14,3.14,0,0,0-.37.18c1.37,1.8,1.46,4.18,1.87,6.34h.4c-.22-1.17-.36-2.38-.63-3.55a13.14,13.14,0,0,1,2.26-.07,19.17,19.17,0,0,0-.62,3.62Z"/><path class="cls-4" d="M15.22,19.15A2.67,2.67,0,0,0,14,17.91a3.93,3.93,0,0,1,.06,1.87,3.89,3.89,0,0,1-3.87,3.13H7.52c.31.41.68.81,1,1.2H13.3a6.6,6.6,0,0,0,2-3.12A4.34,4.34,0,0,0,15.22,19.15Z"/><path class="cls-2" d="M11.89,16c0,1.93.09,2.11-.14,2.47a4.28,4.28,0,0,1-.76.07,4.47,4.47,0,0,1-.76-.07A.88.88,0,0,1,10.1,18V16Z"/><path class="cls-9" d="M11.89,17.48v.07c1.09.35.42,1-1,1H11C12.68,18.57,13.35,17.79,11.89,17.48Z"/><path class="cls-7" d="M15,19c-.32-.06-.7.65-.85,1.57s0,1.72.29,1.77.71-.65.86-1.57S15.35,19.06,15,19Z"/><path class="cls-9" d="M15.33,20.78s0,.08,0,.12c.12-.86,0-1.59-.32-1.64s-.67.59-.83,1.45a.59.59,0,0,1,0-.13c.15-.92.53-1.63.85-1.57S15.49,19.85,15.33,20.78Z"/><path class="cls-7" d="M7,19.18c.32-.06.71.65.86,1.57s0,1.72-.3,1.77-.7-.65-.85-1.57S6.64,19.23,7,19.18Z"/><path class="cls-9" d="M6.67,21a.5.5,0,0,0,0,.12c-.12-.86,0-1.58.32-1.64s.66.59.83,1.45a.69.69,0,0,0,0-.13c-.15-.92-.54-1.63-.86-1.57S6.51,20,6.67,21Z"/><path class="cls-2" d="M17,22a3.44,3.44,0,0,1-2.64-1.42.55.55,0,0,1,.13-.76.55.55,0,0,1,.76.14,2.25,2.25,0,0,0,2.24.89c.48-.12,1-.87,1.49-2.08a.54.54,0,0,1,1,.39c-.61,1.61-1.37,2.54-2.25,2.75A3.32,3.32,0,0,1,17,22Z"/><path class="cls-3" d="M20.53,17.44s-.5,3.35-1.18,4-2.21-.54-2.1-1A40.57,40.57,0,0,1,19.69,17Z"/><path class="cls-5" d="M19.15,19.09l.91-1.91-.12-.07-2,4.2.11.07,1-2.17a2,2,0,0,0,1,.28h0a.74.74,0,0,0,0-.14A1.78,1.78,0,0,1,19.15,19.09Z"/><path class="cls-2" d="M19,15.44a.14.14,0,0,0-.09.23,1.8,1.8,0,0,1,.34.52c.11.3.21,1,.54,1.12a.88.88,0,0,0,1,0c.31-.25.44-.81.59-.87s.7-.7.56-.85-.67.63-.79.57.47-.94.41-1.1-.2-.18-.29,0-.43.83-.5.8A10.22,10.22,0,0,1,21,14.67c0-.13-.2-.19-.25-.08a8.39,8.39,0,0,1-.42,1.08,5,5,0,0,1,0-1.12c0-.12-.2-.21-.3-.11s0,1.32-.1,1.42-.25.16-.34,0S19.19,15.41,19,15.44Z"/><path class="cls-2" d="M4.79,27.16a9.19,9.19,0,0,1,1.8-6.85.54.54,0,0,1,.8.74,7.45,7.45,0,0,0-1.46,3.3A6.88,6.88,0,0,0,5.87,27a.56.56,0,0,1-.46.62A.54.54,0,0,1,4.79,27.16Z"/><path class="cls-3" d="M4.87,27.91s-1.12-3.2-.82-4.07,2.21-.56,2.33-.11-.55,4.21-.55,4.21Z"/><path class="cls-5" d="M5.32,25.81l.09,2.12h.13l-.2-4.64H5.21l.1,2.4a1.86,1.86,0,0,0-1,.22h0c0,.05,0,.09,0,.14A1.75,1.75,0,0,1,5.32,25.81Z"/><path class="cls-2" d="M4.7,28a.77.77,0,0,1,.91-.34c.66.15.46.82.65,1.13s.4.72.26.81-.64-.38-.75-.55-.42.73-.48,1,.38,1,.21,1.14-.86-1-1-1.13A10,10,0,0,1,4.7,28Z"/><ellipse class="cls-2" cx="10.78" cy="10.79" rx="9.3" ry="4.18"/><path class="cls-3" d="M2.57,12.75a4.73,4.73,0,0,0,.54.4,12,12,0,0,1-.64-4.24,4,4,0,0,0-.41.42A12.6,12.6,0,0,0,2.57,12.75Z"/><path class="cls-3" d="M19.5,9.33a3.25,3.25,0,0,0-.41-.42,10.82,10.82,0,0,1-.72,4.29c.2-.13.39-.26.57-.4A11.69,11.69,0,0,0,19.5,9.33Z"/><path class="cls-3" d="M13.31,16.7a22.69,22.69,0,0,0-5.21-.1C4.11,17,2.69,11,3.26,8c.29-1.53,2-2.64,3.44-3a18.53,18.53,0,0,1,8.05-.1,4.68,4.68,0,0,1,3.36,2.63C19.26,10.42,17.21,17.25,13.31,16.7Z"/><path class="cls-4" d="M18.11,7.54a4,4,0,0,0-1.34-1.7,3.42,3.42,0,0,1,.49.85c1.15,2.88-.9,9.7-4.8,9.16a22.7,22.7,0,0,0-5.21-.11,3.34,3.34,0,0,1-2.42-.67A3.6,3.6,0,0,0,8.1,16.6a22.69,22.69,0,0,1,5.21.1C17.21,17.25,19.26,10.42,18.11,7.54Z"/><path class="cls-2" d="M14.6,13.9a9.1,9.1,0,0,1-2,.51,10.12,10.12,0,0,1-6.43-1,3.27,3.27,0,0,1-1.61-2.25l0-.24A3.23,3.23,0,0,1,7.43,7.2a43.26,43.26,0,0,1,6.83,0,3.24,3.24,0,0,1,3,3.72l0,.23A3.66,3.66,0,0,1,14.6,13.9Z"/><path class="cls-10" d="M12.61,12.54c0,.36-.75,1-1.68,1s-1.67-.63-1.67-1,.75-.32,1.67-.32S12.61,12.18,12.61,12.54Z"/><path class="cls-10" d="M8.52,10.26A.54.54,0,1,1,8,9.72.54.54,0,0,1,8.52,10.26Z"/><path class="cls-10" d="M14.11,10.09a.54.54,0,0,1-.54.54.54.54,0,1,1,0-1.08A.54.54,0,0,1,14.11,10.09Z"/><polygon class="cls-11" points="10.6 5 10.79 5 10.8 4.14 11.66 3.87 10.46 3.5 10.82 3.31 10.84 2.4 10.65 2.39 10.63 3.2 9.97 3.55 11.02 3.87 10.62 4 10.6 5"/><path class="cls-11" d="M10.35,2a.39.39,0,0,0,.39.41A.4.4,0,0,0,11.16,2a.42.42,0,0,0-.4-.42A.4.4,0,0,0,10.35,2Z"/><path class="cls-12" d="M9.75,5.25c0,.27.46.5,1,.51s1-.2,1-.47-.45-.49-1-.5S9.76,5,9.75,5.25Z"/></g></g></svg>